<svg width="41" height="40" viewBox="0 0 41 40" fill="none" xmlns="http://www.w3.org/2000/svg">
<path d="M30.3336 8.33301C34.0154 8.33318 36.9996 11.3182 36.9996 15V25C36.9995 28.6816 34.0153 31.6658 30.3336 31.666H10.3336C6.65183 31.666 3.6668 28.6817 3.66663 25V15C3.66663 11.3181 6.65172 8.33301 10.3336 8.33301H30.3336ZM22.2321 21.7031C21.9597 21.8391 21.6905 21.9883 21.4274 22.1484C19.6748 23.2149 18.3034 24.7052 17.861 26.04L17.816 26.1768C19.4967 26.8611 21.4395 26.8563 23.1764 26.0361L23.1412 25.79V25.7881L23.1393 25.7793L23.1344 25.7441C23.1297 25.7127 23.1225 25.6654 23.1129 25.6045C23.0936 25.4826 23.0642 25.3047 23.025 25.084C22.9465 24.6422 22.8281 24.0294 22.6686 23.3457C22.5456 22.8186 22.4002 22.2565 22.2321 21.7031ZM9.49963 13.333C9.03968 13.3332 8.66678 13.706 8.66663 14.166V25.833C8.66665 26.2931 9.0396 26.6658 9.49963 26.666C9.95986 26.666 10.3336 26.2932 10.3336 25.833V14.166C10.3335 13.7059 9.95978 13.333 9.49963 13.333ZM31.1666 13.333C30.7065 13.3331 30.3338 13.7059 30.3336 14.166V25.833C30.3336 26.2932 30.7064 26.666 31.1666 26.666C31.6269 26.666 31.9996 26.2932 31.9996 25.833V14.166C31.9995 13.7059 31.6268 13.333 31.1666 13.333ZM20.5153 18.2148C20.2846 18.3797 20.0471 18.5371 19.8053 18.6855C17.9665 19.8144 15.7297 20.5151 13.7633 20.1279L13.6666 20.1084C13.6831 21.2072 13.9717 22.3177 14.5602 23.3369C15.1491 24.3568 15.9676 25.1609 16.9117 25.7246C17.4574 24.079 19.0454 22.4267 20.9069 21.2939C21.231 21.0967 21.5678 20.913 21.9127 20.7461C21.7113 20.1976 21.4852 19.6836 21.236 19.252C21.0372 18.9078 20.7906 18.5587 20.5153 18.2148ZM26.8053 20.8779C25.695 20.6345 24.4123 20.8186 23.1539 21.2979C23.3478 21.9232 23.5095 22.5495 23.6422 23.1182C23.8067 23.8233 23.9296 24.4544 24.0104 24.9092C24.0508 25.1366 24.081 25.3208 24.1012 25.4482L24.109 25.501C25.1856 24.7638 25.9853 23.7552 26.4684 22.6221C26.7018 22.0745 26.8608 21.4976 26.942 20.9082L26.8053 20.8779ZM23.7526 14.2998C23.3624 15.459 22.457 16.6208 21.3043 17.6006C21.605 17.9769 21.879 18.3638 22.1031 18.752C22.3763 19.225 22.6187 19.7747 22.8326 20.3506C24.2127 19.8304 25.6737 19.6098 27.0045 19.8975C26.9882 18.7983 26.6986 17.6876 26.11 16.668C25.5213 15.6484 24.7042 14.8429 23.7604 14.2793L23.7526 14.2998ZM16.5221 14.5312C14.9471 15.6264 13.9744 17.3056 13.7281 19.1016L13.9567 19.1465C15.5814 19.4663 17.5581 18.8919 19.2828 17.833C19.4794 17.7123 19.6711 17.5865 19.8571 17.4561C19.4208 16.9863 18.9552 16.5401 18.5153 16.1455C18.0293 15.7097 17.584 15.3448 17.2604 15.0889C17.0987 14.961 16.9676 14.86 16.8776 14.792C16.8327 14.7581 16.7982 14.732 16.775 14.7148L16.7487 14.6963L16.7428 14.6914L16.7408 14.6904L16.5221 14.5312ZM21.1324 13.3818C19.9115 13.2339 18.6406 13.4206 17.4655 13.9824L17.4801 13.9941C17.5754 14.0661 17.7126 14.1709 17.8805 14.3037C18.2164 14.5693 18.6783 14.9485 19.1832 15.4014C19.6511 15.821 20.165 16.3117 20.652 16.8418C21.7044 15.9482 22.4871 14.926 22.8053 13.9805L22.8561 13.8281C22.3044 13.6034 21.724 13.4535 21.1324 13.3818Z" fill="#18B7DF"/>
<path d="M30.3336 8.33301C34.0154 8.33318 36.9996 11.3182 36.9996 15V25C36.9995 28.6816 34.0153 31.6658 30.3336 31.666H10.3336C6.65183 31.666 3.6668 28.6817 3.66663 25V15C3.66663 11.3181 6.65172 8.33301 10.3336 8.33301H30.3336ZM22.2321 21.7031C21.9597 21.8391 21.6905 21.9883 21.4274 22.1484C19.6748 23.2149 18.3034 24.7052 17.861 26.04L17.816 26.1768C19.4967 26.8611 21.4395 26.8563 23.1764 26.0361L23.1412 25.79V25.7881L23.1393 25.7793L23.1344 25.7441C23.1297 25.7127 23.1225 25.6654 23.1129 25.6045C23.0936 25.4826 23.0642 25.3047 23.025 25.084C22.9465 24.6422 22.8281 24.0294 22.6686 23.3457C22.5456 22.8186 22.4002 22.2565 22.2321 21.7031ZM9.49963 13.333C9.03968 13.3332 8.66678 13.706 8.66663 14.166V25.833C8.66665 26.2931 9.0396 26.6658 9.49963 26.666C9.95986 26.666 10.3336 26.2932 10.3336 25.833V14.166C10.3335 13.7059 9.95978 13.333 9.49963 13.333ZM31.1666 13.333C30.7065 13.3331 30.3338 13.7059 30.3336 14.166V25.833C30.3336 26.2932 30.7064 26.666 31.1666 26.666C31.6269 26.666 31.9996 26.2932 31.9996 25.833V14.166C31.9995 13.7059 31.6268 13.333 31.1666 13.333ZM20.5153 18.2148C20.2846 18.3797 20.0471 18.5371 19.8053 18.6855C17.9665 19.8144 15.7297 20.5151 13.7633 20.1279L13.6666 20.1084C13.6831 21.2072 13.9717 22.3177 14.5602 23.3369C15.1491 24.3568 15.9676 25.1609 16.9117 25.7246C17.4574 24.079 19.0454 22.4267 20.9069 21.2939C21.231 21.0967 21.5678 20.913 21.9127 20.7461C21.7113 20.1976 21.4852 19.6836 21.236 19.252C21.0372 18.9078 20.7906 18.5587 20.5153 18.2148ZM26.8053 20.8779C25.695 20.6345 24.4123 20.8186 23.1539 21.2979C23.3478 21.9232 23.5095 22.5495 23.6422 23.1182C23.8067 23.8233 23.9296 24.4544 24.0104 24.9092C24.0508 25.1366 24.081 25.3208 24.1012 25.4482L24.109 25.501C25.1856 24.7638 25.9853 23.7552 26.4684 22.6221C26.7018 22.0745 26.8608 21.4976 26.942 20.9082L26.8053 20.8779ZM23.7526 14.2998C23.3624 15.459 22.457 16.6208 21.3043 17.6006C21.605 17.9769 21.879 18.3638 22.1031 18.752C22.3763 19.225 22.6187 19.7747 22.8326 20.3506C24.2127 19.8304 25.6737 19.6098 27.0045 19.8975C26.9882 18.7983 26.6986 17.6876 26.11 16.668C25.5213 15.6484 24.7042 14.8429 23.7604 14.2793L23.7526 14.2998ZM16.5221 14.5312C14.9471 15.6264 13.9744 17.3056 13.7281 19.1016L13.9567 19.1465C15.5814 19.4663 17.5581 18.8919 19.2828 17.833C19.4794 17.7123 19.6711 17.5865 19.8571 17.4561C19.4208 16.9863 18.9552 16.5401 18.5153 16.1455C18.0293 15.7097 17.584 15.3448 17.2604 15.0889C17.0987 14.961 16.9676 14.86 16.8776 14.792C16.8327 14.7581 16.7982 14.732 16.775 14.7148L16.7487 14.6963L16.7428 14.6914L16.7408 14.6904L16.5221 14.5312ZM21.1324 13.3818C19.9115 13.2339 18.6406 13.4206 17.4655 13.9824L17.4801 13.9941C17.5754 14.0661 17.7126 14.1709 17.8805 14.3037C18.2164 14.5693 18.6783 14.9485 19.1832 15.4014C19.6511 15.821 20.165 16.3117 20.652 16.8418C21.7044 15.9482 22.4871 14.926 22.8053 13.9805L22.8561 13.8281C22.3044 13.6034 21.724 13.4535 21.1324 13.3818Z" fill="url(#paint0_linear_491_21703)"/>
<defs>
<linearGradient id="paint0_linear_491_21703" x1="20.3331" y1="8.33301" x2="20.3331" y2="31.666" gradientUnits="userSpaceOnUse">
<stop stop-color="#0ADEFF"/>
<stop offset="1" stop-color="#52BAEC"/>
</linearGradient>
</defs>
</svg>
