<svg width="40" height="40" viewBox="0 0 40 40" fill="none" xmlns="http://www.w3.org/2000/svg">
<path d="M16.6666 6.66699H23.3333C29.6187 6.66699 32.7614 6.66699 34.714 8.61961C36.1199 10.0255 36.5136 12.0484 36.6238 15.417H3.37617C3.48639 12.0484 3.88003 10.0255 5.28593 8.61961C7.23856 6.66699 10.3813 6.66699 16.6666 6.66699Z" fill="url(#paint0_linear_491_21697)"/>
<path fill-rule="evenodd" clip-rule="evenodd" d="M36.6658 21.3629L35.985 20.682C34.5205 19.2175 32.1461 19.2175 30.6817 20.682L29.3459 22.0177C28.813 20.5958 27.4413 19.5837 25.8333 19.5837C23.7622 19.5837 22.0833 21.2626 22.0833 23.3337V26.2734C21.2668 26.3642 20.4744 26.7226 19.8483 27.3487C18.3839 28.8131 18.3839 31.1875 19.8483 32.652L20.53 33.3337H16.6666C10.3813 33.3337 7.23856 33.3337 5.28593 31.381C3.33331 29.4284 3.33331 26.2857 3.33331 20.0003C3.33331 19.2638 3.33331 18.5704 3.33646 17.917H36.6635C36.6666 18.5704 36.6666 19.2638 36.6666 20.0003C36.6666 20.4719 36.6666 20.9258 36.6658 21.3629ZM9.99998 25.417C9.30962 25.417 8.74998 25.9766 8.74998 26.667C8.74998 27.3573 9.30962 27.917 9.99998 27.917H16.6666C17.357 27.917 17.9166 27.3573 17.9166 26.667C17.9166 25.9766 17.357 25.417 16.6666 25.417H9.99998Z" fill="url(#paint1_linear_491_21697)"/>
<path fill-rule="evenodd" clip-rule="evenodd" d="M25.8333 22.0837C26.5237 22.0837 27.0833 22.6433 27.0833 23.3337V30.3159L28.2828 29.1164C28.7709 28.6283 29.5624 28.6283 30.0505 29.1164C30.5387 29.6046 30.5387 30.3961 30.0505 30.8842L26.7172 34.2175C26.229 34.7057 25.4376 34.7057 24.9494 34.2175L21.6161 30.8842C21.1279 30.3961 21.1279 29.6046 21.6161 29.1164C22.1043 28.6283 22.8957 28.6283 23.3839 29.1164L24.5833 30.3159V23.3337C24.5833 22.6433 25.143 22.0837 25.8333 22.0837ZM32.4494 22.4498C32.9376 21.9616 33.729 21.9616 34.2172 22.4498L37.5505 25.7831C38.0387 26.2713 38.0387 27.0627 37.5505 27.5509C37.0624 28.039 36.2709 28.039 35.7828 27.5509L34.5833 26.3514V33.3337C34.5833 34.024 34.0237 34.5837 33.3333 34.5837C32.643 34.5837 32.0833 34.024 32.0833 33.3337V26.3514L30.8839 27.5509C30.3957 28.039 29.6042 28.039 29.1161 27.5509C28.6279 27.0627 28.6279 26.2713 29.1161 25.7831L32.4494 22.4498Z" fill="url(#paint2_linear_491_21697)"/>
<defs>
<linearGradient id="paint0_linear_491_21697" x1="20.625" y1="6.66699" x2="20.625" y2="34.5837" gradientUnits="userSpaceOnUse">
<stop stop-color="#0ADEFF"/>
<stop offset="1" stop-color="#52BAEC"/>
</linearGradient>
<linearGradient id="paint1_linear_491_21697" x1="20.625" y1="6.66699" x2="20.625" y2="34.5837" gradientUnits="userSpaceOnUse">
<stop stop-color="#0ADEFF"/>
<stop offset="1" stop-color="#52BAEC"/>
</linearGradient>
<linearGradient id="paint2_linear_491_21697" x1="20.625" y1="6.66699" x2="20.625" y2="34.5837" gradientUnits="userSpaceOnUse">
<stop stop-color="#0ADEFF"/>
<stop offset="1" stop-color="#52BAEC"/>
</linearGradient>
</defs>
</svg>
