<svg width="41" height="40" viewBox="0 0 41 40" fill="none" xmlns="http://www.w3.org/2000/svg">
<path d="M28.1662 25.001C30.916 25.001 32.2914 25.0003 33.1457 25.8545C34 26.7088 34.0002 28.0841 34.0002 30.834C34.0002 33.5835 33.9997 34.9582 33.1457 35.8125C32.2914 36.6668 30.9161 36.667 28.1662 36.667C25.4166 36.667 24.0419 36.6667 23.1877 35.8125C22.3335 34.9582 22.3332 33.5836 22.3332 30.834C22.3332 28.0841 22.3334 26.7088 23.1877 25.8545C24.0419 25.0005 25.4168 25.001 28.1662 25.001ZM20.6672 21.667C22.7335 21.667 24.6743 21.9742 26.3576 22.5127C25.7352 22.5274 25.1528 22.559 24.633 22.6289C23.5616 22.773 22.3891 23.118 21.4201 24.0869C20.4512 25.0558 20.1072 26.2284 19.9631 27.2998C19.8336 28.2627 19.833 29.4395 19.8332 30.6904V30.9766C19.833 32.2275 19.8336 33.4043 19.9631 34.3672C19.9907 34.5724 20.0252 34.7817 20.0705 34.9922C13.9045 34.8148 9.00048 31.9014 9.00018 28.334C9.00018 24.6521 14.2239 21.667 20.6672 21.667ZM31.4465 28.2021C31.0668 27.8225 30.4511 27.8225 30.0715 28.2021L26.8703 31.4033L26.2609 30.7949C25.8812 30.4153 25.2666 30.4153 24.8869 30.7949C24.5072 31.1746 24.5072 31.7902 24.8869 32.1699L26.1828 33.4658C26.5625 33.8454 27.1781 33.8455 27.5578 33.4658L31.4465 29.5771C31.8261 29.1975 31.8261 28.5818 31.4465 28.2021ZM20.6672 3.33398C24.3489 3.33416 27.3332 6.31919 27.3332 10.001C27.333 13.6826 24.3488 16.6668 20.6672 16.667C16.9854 16.667 14.0004 13.6827 14.0002 10.001C14.0002 6.31908 16.9853 3.33398 20.6672 3.33398Z" fill="#18B7DF"/>
<path d="M28.1662 25.001C30.916 25.001 32.2914 25.0003 33.1457 25.8545C34 26.7088 34.0002 28.0841 34.0002 30.834C34.0002 33.5835 33.9997 34.9582 33.1457 35.8125C32.2914 36.6668 30.9161 36.667 28.1662 36.667C25.4166 36.667 24.0419 36.6667 23.1877 35.8125C22.3335 34.9582 22.3332 33.5836 22.3332 30.834C22.3332 28.0841 22.3334 26.7088 23.1877 25.8545C24.0419 25.0005 25.4168 25.001 28.1662 25.001ZM20.6672 21.667C22.7335 21.667 24.6743 21.9742 26.3576 22.5127C25.7352 22.5274 25.1528 22.559 24.633 22.6289C23.5616 22.773 22.3891 23.118 21.4201 24.0869C20.4512 25.0558 20.1072 26.2284 19.9631 27.2998C19.8336 28.2627 19.833 29.4395 19.8332 30.6904V30.9766C19.833 32.2275 19.8336 33.4043 19.9631 34.3672C19.9907 34.5724 20.0252 34.7817 20.0705 34.9922C13.9045 34.8148 9.00048 31.9014 9.00018 28.334C9.00018 24.6521 14.2239 21.667 20.6672 21.667ZM31.4465 28.2021C31.0668 27.8225 30.4511 27.8225 30.0715 28.2021L26.8703 31.4033L26.2609 30.7949C25.8812 30.4153 25.2666 30.4153 24.8869 30.7949C24.5072 31.1746 24.5072 31.7902 24.8869 32.1699L26.1828 33.4658C26.5625 33.8454 27.1781 33.8455 27.5578 33.4658L31.4465 29.5771C31.8261 29.1975 31.8261 28.5818 31.4465 28.2021ZM20.6672 3.33398C24.3489 3.33416 27.3332 6.31919 27.3332 10.001C27.333 13.6826 24.3488 16.6668 20.6672 16.667C16.9854 16.667 14.0004 13.6827 14.0002 10.001C14.0002 6.31908 16.9853 3.33398 20.6672 3.33398Z" fill="url(#paint0_linear_491_21691)"/>
<defs>
<linearGradient id="paint0_linear_491_21691" x1="21.5002" y1="3.33398" x2="21.5002" y2="36.667" gradientUnits="userSpaceOnUse">
<stop stop-color="#0ADEFF"/>
<stop offset="1" stop-color="#52BAEC"/>
</linearGradient>
</defs>
</svg>
