<svg width="22" height="22" viewBox="0 0 22 22" fill="none" xmlns="http://www.w3.org/2000/svg">
<path fill-rule="evenodd" clip-rule="evenodd" d="M8.39176 1.46729C8.12794 1.69211 7.99602 1.80453 7.85514 1.89896C7.53219 2.11541 7.16951 2.26564 6.7881 2.34094C6.62171 2.37379 6.44894 2.38758 6.10341 2.41515C5.23524 2.48443 4.80116 2.51907 4.439 2.64699C3.60137 2.94285 2.94251 3.60171 2.64665 4.43934C2.51874 4.8015 2.4841 5.23558 2.41482 6.10375C2.38724 6.44928 2.37346 6.62205 2.34061 6.78843C2.26531 7.16985 2.11508 7.53253 1.89862 7.85547C1.8042 7.99636 1.69178 8.12827 1.46695 8.3921C0.902061 9.05496 0.619603 9.38641 0.453973 9.73294C0.0708842 10.5344 0.0708842 11.4662 0.453973 12.2677C0.619604 12.6142 0.902053 12.9457 1.46695 13.6086C1.69176 13.8724 1.8042 14.0043 1.89862 14.1452C2.11508 14.4681 2.26531 14.8308 2.34061 15.2122C2.37346 15.3786 2.38724 15.5514 2.41482 15.8969C2.4841 16.7651 2.51874 17.1992 2.64665 17.5613C2.94251 18.3989 3.60137 19.0578 4.439 19.3537C4.80116 19.4816 5.23524 19.5162 6.10341 19.5855C6.44894 19.6131 6.62171 19.6269 6.7881 19.6597C7.16951 19.735 7.53219 19.8852 7.85514 20.1017C7.99602 20.1961 8.12793 20.3085 8.39176 20.5334C9.05464 21.0983 9.38607 21.3807 9.73261 21.5463C10.5341 21.9294 11.4659 21.9294 12.2674 21.5463C12.6139 21.3807 12.9453 21.0983 13.6082 20.5334C13.872 20.3085 14.004 20.1961 14.1448 20.1017C14.4678 19.8852 14.8305 19.735 15.2119 19.6597C15.3783 19.6269 15.551 19.6131 15.8966 19.5855C16.7647 19.5162 17.1988 19.4816 17.561 19.3537C18.3986 19.0578 19.0575 18.3989 19.3533 17.5613C19.4812 17.1992 19.5159 16.7651 19.5852 15.8969C19.6127 15.5514 19.6265 15.3786 19.6594 15.2122C19.7347 14.8308 19.8849 14.4681 20.1014 14.1452C20.1958 14.0043 20.3082 13.8724 20.533 13.6086C21.0979 12.9457 21.3804 12.6142 21.546 12.2677C21.9291 11.4662 21.9291 10.5344 21.546 9.73294C21.3804 9.38641 21.0979 9.05497 20.533 8.3921C20.3082 8.12827 20.1958 7.99636 20.1014 7.85547C19.8849 7.53253 19.7347 7.16985 19.6594 6.78843C19.6265 6.62205 19.6127 6.44928 19.5852 6.10375C19.5159 5.23558 19.4812 4.80149 19.3533 4.43934C19.0575 3.60171 18.3986 2.94285 17.561 2.64699C17.1988 2.51907 16.7647 2.48443 15.8966 2.41515C15.551 2.38758 15.3783 2.37379 15.2119 2.34094C14.8305 2.26564 14.4678 2.11541 14.1448 1.89896C14.004 1.80453 13.872 1.69212 13.6082 1.46729C12.9453 0.902389 12.6139 0.61994 12.2674 0.454309C11.4659 0.0712199 10.5341 0.0712199 9.7326 0.454309C9.38607 0.619939 9.05463 0.902395 8.39176 1.46729ZM15.7379 8.68539C16.0823 8.34107 16.0823 7.78282 15.7379 7.4385C15.3936 7.09418 14.8354 7.09418 14.491 7.4385L9.23661 12.6929L7.5089 10.9652C7.16459 10.6209 6.60634 10.6209 6.26202 10.9652C5.9177 11.3095 5.9177 11.8678 6.26202 12.2121L8.61317 14.5633C8.95749 14.9076 9.51574 14.9076 9.86006 14.5633L15.7379 8.68539Z" fill="#18B7DF"/>
<path fill-rule="evenodd" clip-rule="evenodd" d="M8.39176 1.46729C8.12794 1.69211 7.99602 1.80453 7.85514 1.89896C7.53219 2.11541 7.16951 2.26564 6.7881 2.34094C6.62171 2.37379 6.44894 2.38758 6.10341 2.41515C5.23524 2.48443 4.80116 2.51907 4.439 2.64699C3.60137 2.94285 2.94251 3.60171 2.64665 4.43934C2.51874 4.8015 2.4841 5.23558 2.41482 6.10375C2.38724 6.44928 2.37346 6.62205 2.34061 6.78843C2.26531 7.16985 2.11508 7.53253 1.89862 7.85547C1.8042 7.99636 1.69178 8.12827 1.46695 8.3921C0.902061 9.05496 0.619603 9.38641 0.453973 9.73294C0.0708842 10.5344 0.0708842 11.4662 0.453973 12.2677C0.619604 12.6142 0.902053 12.9457 1.46695 13.6086C1.69176 13.8724 1.8042 14.0043 1.89862 14.1452C2.11508 14.4681 2.26531 14.8308 2.34061 15.2122C2.37346 15.3786 2.38724 15.5514 2.41482 15.8969C2.4841 16.7651 2.51874 17.1992 2.64665 17.5613C2.94251 18.3989 3.60137 19.0578 4.439 19.3537C4.80116 19.4816 5.23524 19.5162 6.10341 19.5855C6.44894 19.6131 6.62171 19.6269 6.7881 19.6597C7.16951 19.735 7.53219 19.8852 7.85514 20.1017C7.99602 20.1961 8.12793 20.3085 8.39176 20.5334C9.05464 21.0983 9.38607 21.3807 9.73261 21.5463C10.5341 21.9294 11.4659 21.9294 12.2674 21.5463C12.6139 21.3807 12.9453 21.0983 13.6082 20.5334C13.872 20.3085 14.004 20.1961 14.1448 20.1017C14.4678 19.8852 14.8305 19.735 15.2119 19.6597C15.3783 19.6269 15.551 19.6131 15.8966 19.5855C16.7647 19.5162 17.1988 19.4816 17.561 19.3537C18.3986 19.0578 19.0575 18.3989 19.3533 17.5613C19.4812 17.1992 19.5159 16.7651 19.5852 15.8969C19.6127 15.5514 19.6265 15.3786 19.6594 15.2122C19.7347 14.8308 19.8849 14.4681 20.1014 14.1452C20.1958 14.0043 20.3082 13.8724 20.533 13.6086C21.0979 12.9457 21.3804 12.6142 21.546 12.2677C21.9291 11.4662 21.9291 10.5344 21.546 9.73294C21.3804 9.38641 21.0979 9.05497 20.533 8.3921C20.3082 8.12827 20.1958 7.99636 20.1014 7.85547C19.8849 7.53253 19.7347 7.16985 19.6594 6.78843C19.6265 6.62205 19.6127 6.44928 19.5852 6.10375C19.5159 5.23558 19.4812 4.80149 19.3533 4.43934C19.0575 3.60171 18.3986 2.94285 17.561 2.64699C17.1988 2.51907 16.7647 2.48443 15.8966 2.41515C15.551 2.38758 15.3783 2.37379 15.2119 2.34094C14.8305 2.26564 14.4678 2.11541 14.1448 1.89896C14.004 1.80453 13.872 1.69212 13.6082 1.46729C12.9453 0.902389 12.6139 0.61994 12.2674 0.454309C11.4659 0.0712199 10.5341 0.0712199 9.7326 0.454309C9.38607 0.619939 9.05463 0.902395 8.39176 1.46729ZM15.7379 8.68539C16.0823 8.34107 16.0823 7.78282 15.7379 7.4385C15.3936 7.09418 14.8354 7.09418 14.491 7.4385L9.23661 12.6929L7.5089 10.9652C7.16459 10.6209 6.60634 10.6209 6.26202 10.9652C5.9177 11.3095 5.9177 11.8678 6.26202 12.2121L8.61317 14.5633C8.95749 14.9076 9.51574 14.9076 9.86006 14.5633L15.7379 8.68539Z" fill="url(#paint0_linear_54652_1119)"/>
<defs>
<linearGradient id="paint0_linear_54652_1119" x1="11" y1="0.166992" x2="11" y2="21.8337" gradientUnits="userSpaceOnUse">
<stop stop-color="#0ADEFF"/>
<stop offset="1" stop-color="#52BAEC"/>
</linearGradient>
</defs>
</svg>
