<svg width="25" height="24" viewBox="0 0 25 24" fill="none" xmlns="http://www.w3.org/2000/svg">
<path fill-rule="evenodd" clip-rule="evenodd" d="M3.61854 3.14794C3.23165 3.34602 2.90093 3.67804 2.70231 4.14531L0.241789 9.93379C-0.599257 11.9124 0.85278 14.1074 3.00271 14.1074H6.07625C8.29324 14.1074 9.74437 11.7856 8.77288 9.79278L7.7565 7.70789L6.9064 5.5L11 6.76031L11 21.9531H5.99999C5.44771 21.9531 4.99999 22.4008 4.99999 22.9531C4.99999 23.5054 5.44771 23.9531 5.99999 23.9531H18C18.5523 23.9531 19 23.5054 19 22.9531C19 22.4008 18.5523 21.9531 18 21.9531H13L13 7.30623L17.5625 8.4375L15.1206 14.447C14.319 16.4198 15.7705 18.5764 17.8999 18.5764H21.0253C23.2423 18.5764 24.6934 16.2546 23.722 14.2618L22.7114 12.1889L21.3593 8.37668C21.2658 8.11316 21.1304 7.88845 20.9655 7.70281C20.8525 7.42306 20.6147 7.19747 20.3012 7.11189L13 5.23307V1.95312C13 1.40084 12.5523 0.953125 12 0.953125C11.4477 0.953125 11 1.40084 11 1.95312V4.68715L4.65873 2.81331C4.26436 2.70566 3.86067 2.84974 3.61854 3.14794Z" fill="#18B7DF"/>
<path fill-rule="evenodd" clip-rule="evenodd" d="M3.61854 3.14794C3.23165 3.34602 2.90093 3.67804 2.70231 4.14531L0.241789 9.93379C-0.599257 11.9124 0.85278 14.1074 3.00271 14.1074H6.07625C8.29324 14.1074 9.74437 11.7856 8.77288 9.79278L7.7565 7.70789L6.9064 5.5L11 6.76031L11 21.9531H5.99999C5.44771 21.9531 4.99999 22.4008 4.99999 22.9531C4.99999 23.5054 5.44771 23.9531 5.99999 23.9531H18C18.5523 23.9531 19 23.5054 19 22.9531C19 22.4008 18.5523 21.9531 18 21.9531H13L13 7.30623L17.5625 8.4375L15.1206 14.447C14.319 16.4198 15.7705 18.5764 17.8999 18.5764H21.0253C23.2423 18.5764 24.6934 16.2546 23.722 14.2618L22.7114 12.1889L21.3593 8.37668C21.2658 8.11316 21.1304 7.88845 20.9655 7.70281C20.8525 7.42306 20.6147 7.19747 20.3012 7.11189L13 5.23307V1.95312C13 1.40084 12.5523 0.953125 12 0.953125C11.4477 0.953125 11 1.40084 11 1.95312V4.68715L4.65873 2.81331C4.26436 2.70566 3.86067 2.84974 3.61854 3.14794Z" fill="url(#paint0_linear_54652_621)"/>
<defs>
<linearGradient id="paint0_linear_54652_621" x1="11.9509" y1="0.953125" x2="11.9509" y2="24.9531" gradientUnits="userSpaceOnUse">
<stop stop-color="#0ADEFF"/>
<stop offset="1" stop-color="#52BAEC"/>
</linearGradient>
</defs>
</svg>
