<svg width="20" height="20" viewBox="0 0 20 20" fill="none" xmlns="http://www.w3.org/2000/svg">
<path d="M10 0C14.714 0 17.0712 -9.88266e-05 18.5352 1.46387C20.0001 2.92986 20 5.28606 20 10C20 14.714 20.0001 17.0712 18.5352 18.5352L18.3955 18.6689C16.92 19.9998 14.5665 20 10 20C5.286 20 2.92887 20.0002 1.46387 18.5352C-9.87806e-05 17.0722 0 14.714 0 10C0 5.28606 -0.000123321 2.92886 1.46387 1.46387C2.92987 -8.71792e-05 5.28605 0 10 0ZM10 5.25C9.80111 5.25 9.61037 5.3291 9.46973 5.46973C9.3291 5.61036 9.25002 5.80112 9.25 6V12.1904L7.53027 10.4697C7.46162 10.3961 7.37811 10.3369 7.28613 10.2959C7.19427 10.255 7.09466 10.2332 6.99414 10.2314C6.89357 10.2297 6.79346 10.2485 6.7002 10.2861C6.60692 10.3238 6.52232 10.38 6.45117 10.4512C6.38004 10.5223 6.32385 10.6069 6.28613 10.7002C6.24847 10.7934 6.22973 10.8936 6.23145 10.9941C6.23322 11.0948 6.25491 11.1951 6.2959 11.2871C6.33687 11.379 6.39614 11.4617 6.46973 11.5303L9.46973 14.5303C9.61035 14.6707 9.80125 14.749 10 14.749C10.1988 14.749 10.3896 14.6707 10.5303 14.5303L13.5303 11.5303C13.6039 11.4617 13.6631 11.379 13.7041 11.2871C13.7451 11.1951 13.7668 11.0948 13.7686 10.9941C13.7703 10.8936 13.7515 10.7934 13.7139 10.7002C13.6761 10.6069 13.62 10.5223 13.5488 10.4512C13.4777 10.38 13.3931 10.3238 13.2998 10.2861C13.2065 10.2485 13.1064 10.2297 13.0059 10.2314C12.9053 10.2332 12.8057 10.255 12.7139 10.2959C12.6219 10.3369 12.5384 10.3961 12.4697 10.4697L10.75 12.1904V6C10.75 5.80112 10.6709 5.61036 10.5303 5.46973C10.3896 5.3291 10.1989 5.25 10 5.25Z" fill="#18B7DF"/>
<path d="M10 0C14.714 0 17.0712 -9.88266e-05 18.5352 1.46387C20.0001 2.92986 20 5.28606 20 10C20 14.714 20.0001 17.0712 18.5352 18.5352L18.3955 18.6689C16.92 19.9998 14.5665 20 10 20C5.286 20 2.92887 20.0002 1.46387 18.5352C-9.87806e-05 17.0722 0 14.714 0 10C0 5.28606 -0.000123321 2.92886 1.46387 1.46387C2.92987 -8.71792e-05 5.28605 0 10 0ZM10 5.25C9.80111 5.25 9.61037 5.3291 9.46973 5.46973C9.3291 5.61036 9.25002 5.80112 9.25 6V12.1904L7.53027 10.4697C7.46162 10.3961 7.37811 10.3369 7.28613 10.2959C7.19427 10.255 7.09466 10.2332 6.99414 10.2314C6.89357 10.2297 6.79346 10.2485 6.7002 10.2861C6.60692 10.3238 6.52232 10.38 6.45117 10.4512C6.38004 10.5223 6.32385 10.6069 6.28613 10.7002C6.24847 10.7934 6.22973 10.8936 6.23145 10.9941C6.23322 11.0948 6.25491 11.1951 6.2959 11.2871C6.33687 11.379 6.39614 11.4617 6.46973 11.5303L9.46973 14.5303C9.61035 14.6707 9.80125 14.749 10 14.749C10.1988 14.749 10.3896 14.6707 10.5303 14.5303L13.5303 11.5303C13.6039 11.4617 13.6631 11.379 13.7041 11.2871C13.7451 11.1951 13.7668 11.0948 13.7686 10.9941C13.7703 10.8936 13.7515 10.7934 13.7139 10.7002C13.6761 10.6069 13.62 10.5223 13.5488 10.4512C13.4777 10.38 13.3931 10.3238 13.2998 10.2861C13.2065 10.2485 13.1064 10.2297 13.0059 10.2314C12.9053 10.2332 12.8057 10.255 12.7139 10.2959C12.6219 10.3369 12.5384 10.3961 12.4697 10.4697L10.75 12.1904V6C10.75 5.80112 10.6709 5.61036 10.5303 5.46973C10.3896 5.3291 10.1989 5.25 10 5.25Z" fill="url(#paint0_linear_54668_5269)"/>
<defs>
<linearGradient id="paint0_linear_54668_5269" x1="10" y1="9.15527e-05" x2="10" y2="20.0001" gradientUnits="userSpaceOnUse">
<stop stop-color="#0ADEFF"/>
<stop offset="1" stop-color="#52BAEC"/>
</linearGradient>
</defs>
</svg>
