<svg width="24" height="24" viewBox="0 0 24 24" fill="none" xmlns="http://www.w3.org/2000/svg">
<rect width="24" height="24" rx="12" fill="#FF6600"/>
<path d="M18 13.7157V13.7136V13.5811V13.4077H17.994C17.9369 11.9594 17.4713 10.7191 16.6416 9.81064C15.6739 8.7521 14.153 8.19252 12.3954 8.19252C10.8692 8.19252 9.56723 8.86909 8.92055 9.62881V4.90906H6.54541V18.8414H8.91923V17.8456C9.77616 18.6723 11.0543 19.0909 12.4743 19.0909C14.0025 19.0909 15.6673 18.6969 16.6409 17.6222C17.4693 16.7081 17.935 15.4762 17.9927 14.0505H17.998L17.9993 13.8757V13.7354V13.7263V13.7185V13.7164L18 13.7157ZM12.2336 17.1197C11.5365 17.1197 11.0131 16.9829 10.4679 16.701C9.42994 16.1654 8.91989 14.9927 8.91989 13.7143C8.91989 12.1709 9.74764 10.6916 11.11 10.3582C11.4814 10.2673 11.8064 10.2215 12.2336 10.2215C13.2331 10.2215 14.0748 10.5408 14.6677 11.1447C15.258 11.7459 15.5718 12.7156 15.5744 13.7291C15.5691 15.7567 14.2267 17.1197 12.2336 17.1197Z" fill="white"/>
</svg>
