<svg width="24" height="24" viewBox="0 0 24 24" fill="none" xmlns="http://www.w3.org/2000/svg">
<g clip-path="url(#clip0_538_1931)">
<rect width="24" height="24" rx="12" fill="#C80C00"/>
<path d="M8.81211 9.15293C8.65483 9.31635 8.53026 9.49879 8.44345 9.70151C8.35915 9.90416 8.28752 10.1056 8.24218 10.3083L7.80564 12.1895H15.7365C15.9781 12.1895 16.1227 12.2313 16.1755 12.3111C16.2272 12.3934 16.212 12.6075 16.1315 12.9483L15.3968 16.109C15.2899 16.574 15.0458 16.8058 14.6633 16.8058H6.73374L5.43193 22.125L4.51711 25.858L-0.443115 23.8466L1.12502 17.1482L2.72554 9.5178C2.89664 8.78936 3.16213 8.07739 3.52694 7.37816C3.89053 6.6801 4.35853 6.06446 4.93596 5.52735C5.51342 4.98896 6.21163 4.55569 7.03063 4.23521C7.84971 3.91215 8.79197 3.75 9.85626 3.75H19.0264C19.2679 3.75 19.4151 3.78671 19.4704 3.8577C19.5207 3.92482 19.5069 4.13258 19.4289 4.47716L18.6326 7.90894C18.5684 8.17373 18.4891 8.35106 18.386 8.44099C18.2841 8.53219 18.1231 8.57779 17.9041 8.57779H10.4564C10.0525 8.57779 9.71664 8.63351 9.45122 8.74504C9.18193 8.85398 8.96934 8.9895 8.81211 9.15293Z" fill="white"/>
</g>
<defs>
<clipPath id="clip0_538_1931">
<rect width="24" height="24" rx="12" fill="white"/>
</clipPath>
</defs>
</svg>
