<svg width="24" height="24" viewBox="0 0 24 24" fill="none" xmlns="http://www.w3.org/2000/svg">
<rect width="24" height="24" rx="12" fill="#AA182C"/>
<path d="M10.3636 18.5455V8.72727H6.54541V6H17.4545V8.72727H13.6363V18.5455H10.3636Z" fill="white"/>
<path d="M19.3788 20.5649C21.7435 20.5649 23.6605 18.6479 23.6605 16.2832C23.6605 13.9186 21.7435 12.0016 19.3788 12.0016C17.0141 12.0016 15.0972 13.9186 15.0972 16.2832C15.0972 18.6479 17.0141 20.5649 19.3788 20.5649Z" fill="#F0DF00"/>
<path d="M20.0248 17.0958L20.1328 17.376L21.8181 16.7262L21.6811 16.3708L20.5494 16.8072L20.542 16.788L21.0852 14.9395L20.9703 14.6415L19.3603 15.2624L19.4973 15.6177L20.5975 15.1935L20.6049 15.2126L20.0248 17.0958Z" fill="#AA182C"/>
<path d="M18.1556 17.2828L18.4428 18.0277L18.0342 18.1853L16.9548 15.3861L17.3635 15.2285L17.9759 16.8167L18.0114 16.803L18.5054 15.592L18.9947 15.4034L18.4922 16.6322L19.8616 17.4806L19.36 17.674L18.2803 17.0015L18.1556 17.2828Z" fill="#AA182C"/>
</svg>
