<svg width="24" height="24" viewBox="0 0 24 24" fill="none" xmlns="http://www.w3.org/2000/svg">
<rect width="24" height="24" rx="12" fill="#0B0D10"/>
<path fill-rule="evenodd" clip-rule="evenodd" d="M12 3.81824C7.48124 3.81824 3.81812 7.48137 3.81812 12.0001C3.81812 16.5188 7.48124 20.1819 12 20.1819C16.5186 20.1819 20.1818 16.5188 20.1818 12.0001C20.1818 7.48137 16.5186 3.81824 12 3.81824ZM7.83201 8.87496L7.10565 12.8337C6.95068 13.7731 7.1008 14.4995 7.55599 15.0128C8.01119 15.5261 8.70123 15.7827 9.62615 15.7827C10.4348 15.7827 11.1636 15.6205 11.8125 15.296C12.4614 14.9668 12.8827 14.6617 13.0764 14.3809H13.0909L12.8803 15.514H15.5824L16.7518 8.87496H14.0207L13.3379 12.5867C13.1345 12.8676 12.8052 13.1266 12.35 13.3639C11.8949 13.5964 11.4251 13.7126 10.9409 13.7126C10.5147 13.7126 10.2194 13.5843 10.0547 13.3276C9.89008 13.071 9.84648 12.7417 9.92397 12.3398L10.5632 8.87496H7.83201Z" fill="#ADFF00"/>
</svg>
