<svg width="24" height="24" viewBox="0 0 24 24" fill="none" xmlns="http://www.w3.org/2000/svg">
<g clip-path="url(#clip0_543_15712)">
<rect width="24" height="24" rx="12" fill="#2C2C2C"/>
<rect width="24" height="24" fill="#2C2C2C"/>
<path d="M19.0909 11.99C19.0907 8.92402 17.9327 5.97419 15.8542 3.74495C13.7758 1.51572 10.9342 0.175891 7.91174 0H5.43937C5.1509 0.00855056 4.61126 0 4.61126 0H0C0 0 0.00416799 4.00538 0 5.30063V18.7001C0.00408341 20.1044 0 24 0 24L5.23322 24H7.23138C10.3766 24 13.393 22.7347 15.6171 20.4824C17.8412 18.2301 19.0907 15.1753 19.0909 11.99Z" fill="#FF6A13"/>
<path d="M7.72401 7.04853L23.9934 7.07559V5.72284L7.72757 5.69507C6.01997 5.71296 4.38838 6.40386 3.1872 7.6177C1.98602 8.83153 1.31226 10.4703 1.31226 12.178C1.31226 13.8857 1.98602 15.5244 3.1872 16.7382C4.38838 17.9521 6.01997 18.643 7.72757 18.6609L23.9934 18.6886V17.3288L7.72401 17.301C6.36445 17.301 5.06057 16.7609 4.09922 15.7996C3.13787 14.8382 2.59778 13.5343 2.59778 12.1748C2.59778 10.8152 3.13787 9.51133 4.09922 8.54997C5.06057 7.58862 6.36445 7.04853 7.72401 7.04853Z" fill="white"/>
<path d="M2.53955 12.1747C2.53955 13.5498 3.08576 14.8686 4.05804 15.841C5.03033 16.8134 6.34905 17.3598 7.72416 17.36H23.9935V6.98938H7.72416C7.04325 6.98938 6.369 7.12351 5.73993 7.3841C5.11086 7.6447 4.53928 8.02666 4.05784 8.50817C3.57639 8.98968 3.19451 9.56131 2.934 10.1904C2.67349 10.8195 2.53946 11.4938 2.53955 12.1747Z" fill="#2C2C2C"/>
<path d="M5.07335 9.5775C5.03151 9.4595 5.00751 9.33592 5.00216 9.21083C4.99593 9.13598 5.0102 9.06084 5.04344 8.99349C5.07668 8.92613 5.12763 8.8691 5.19083 8.8285C5.30261 8.75232 5.52831 8.76585 5.76041 8.7573C6.16125 8.74805 6.32287 8.73595 6.45743 9.09051C6.45743 9.09051 7.50902 13.3268 7.53821 13.4791C7.56741 13.6315 7.59304 13.7568 7.60941 13.8551C7.62935 13.7433 7.65284 13.6208 7.68061 13.4891C7.70838 13.3574 8.71938 10.5315 8.71938 10.5315C8.74045 10.4447 8.78268 10.3644 8.84231 10.2978C8.90194 10.2312 8.97711 10.1804 9.06113 10.1499C9.10886 10.1263 9.16101 10.113 9.21421 10.1108H9.761C9.89746 10.0942 10.0351 10.1308 10.1452 10.213C10.2554 10.2952 10.3297 10.4167 10.3527 10.5522C10.3527 10.5522 11.432 13.3787 11.4619 13.514C11.4918 13.6493 11.5132 13.7604 11.526 13.8465C11.5393 13.7668 11.5592 13.6642 11.5858 13.5389C11.6129 13.4001 12.7022 9.09122 12.7022 9.09122C12.8524 8.74022 12.987 8.77866 13.3992 8.77866C13.632 8.77866 13.7609 8.7573 13.8933 8.83491C14.0492 8.92747 14.087 9.06132 14.087 9.22009C14.0865 9.27974 14.0813 9.33927 14.0713 9.39808C14.0606 9.46909 14.0425 9.53878 14.0172 9.60598L12.3732 15.2035C12.353 15.2788 12.3155 15.3483 12.2635 15.4064C12.2116 15.4645 12.1468 15.5097 12.0742 15.5382C12.0228 15.5599 11.9677 15.5716 11.9119 15.5723H11.1821C11.0964 15.5777 11.0106 15.5631 10.9315 15.5296C10.8592 15.4937 10.7958 15.4421 10.7458 15.3787C10.6958 15.3153 10.6605 15.2416 10.6424 15.163C10.6424 15.163 9.56307 11.9242 9.55667 11.8651C9.55026 11.9178 8.441 15.1929 8.441 15.1929C8.42238 15.2703 8.38487 15.3419 8.33182 15.4013C8.27877 15.4607 8.21183 15.506 8.13699 15.5332C8.09178 15.5516 8.04341 15.561 7.99459 15.5609H7.21142C7.1425 15.558 7.0749 15.5411 7.01278 15.5111C6.94301 15.475 6.8816 15.4247 6.83254 15.3634C6.78348 15.3021 6.74786 15.2311 6.72799 15.1551L5.07335 9.5775Z" fill="white"/>
<path d="M16.6409 9.49343C16.6408 9.54473 16.6306 9.5955 16.6108 9.64285C16.5911 9.6902 16.5622 9.73319 16.5258 9.76936C16.4895 9.80554 16.4463 9.83418 16.3989 9.85366C16.3514 9.87314 16.3006 9.88307 16.2493 9.88288H15.6462C15.595 9.88298 15.5443 9.87298 15.4969 9.85346C15.4495 9.83394 15.4064 9.80527 15.3702 9.76911C15.3339 9.73295 15.305 9.68999 15.2853 9.64269C15.2656 9.59539 15.2555 9.54467 15.2554 9.49343V9.02922C15.2555 8.97799 15.2656 8.92727 15.2853 8.87997C15.305 8.83267 15.3339 8.78971 15.3702 8.75355C15.4064 8.71738 15.4495 8.68872 15.4969 8.6692C15.5443 8.64968 15.595 8.63968 15.6462 8.63977H16.2493C16.3006 8.63959 16.3514 8.64952 16.3989 8.669C16.4463 8.68847 16.4895 8.71712 16.5258 8.75329C16.5622 8.78947 16.5911 8.83246 16.6108 8.8798C16.6306 8.92715 16.6408 8.97793 16.6409 9.02922V9.49343Z" fill="white"/>
<path d="M22.8745 11.7219C22.8417 11.449 22.7348 11.1902 22.5655 10.9737C22.4057 10.7745 22.2033 10.6137 21.9731 10.503C21.7013 10.3858 21.4068 10.3301 21.1109 10.34C20.7851 10.3318 20.4632 10.4122 20.1797 10.5728C19.9414 10.7061 19.7355 10.8904 19.5766 11.1125V10.9936V10.7949C19.5766 10.7452 19.5668 10.6959 19.5477 10.6499C19.5286 10.604 19.5006 10.5622 19.4654 10.5271C19.4301 10.492 19.3883 10.4642 19.3422 10.4453C19.2962 10.4263 19.2469 10.4167 19.1971 10.4169H18.6119C18.5621 10.4167 18.5127 10.4263 18.4667 10.4452C18.4206 10.4641 18.3787 10.492 18.3434 10.5271C18.3081 10.5622 18.28 10.6039 18.2609 10.6499C18.2417 10.6959 18.2318 10.7451 18.2317 10.7949V15.2982C18.2323 15.4009 18.2735 15.4991 18.3463 15.5714C18.4192 15.6438 18.5178 15.6843 18.6204 15.6841H19.2185C19.3212 15.6843 19.4197 15.6438 19.4926 15.5714C19.5654 15.4991 19.6067 15.4009 19.6072 15.2982V13.1373C19.6072 13.0313 19.6072 12.9024 19.6115 12.75C19.613 12.6127 19.6316 12.4762 19.667 12.3435C19.6902 12.2539 19.7234 12.1672 19.766 12.085C19.8169 11.9865 19.8843 11.8974 19.9654 11.8216C20.0589 11.7342 20.1668 11.6636 20.2843 11.613C20.5743 11.5027 20.8945 11.5009 21.1857 11.608C21.3096 11.6618 21.4079 11.7616 21.4598 11.8864C21.5196 12.0188 21.5495 12.2305 21.5495 12.5215V15.2982C21.5499 15.4008 21.5909 15.4991 21.6637 15.5714C21.7364 15.6437 21.8349 15.6843 21.9375 15.6841H22.5363C22.6389 15.6843 22.7374 15.6437 22.8101 15.5714C22.8829 15.4991 22.9239 15.4008 22.9243 15.2982V12.5001C22.9235 12.24 22.9068 11.9801 22.8745 11.7219Z" fill="white"/>
<path d="M16.2558 10.4525H15.6527C15.6014 10.4523 15.5506 10.4623 15.5031 10.4817C15.4557 10.5012 15.4125 10.5299 15.3762 10.566C15.3398 10.6022 15.3109 10.6452 15.2912 10.6925C15.2714 10.7399 15.2612 10.7907 15.2611 10.842L15.249 15.2904C15.2491 15.3422 15.2594 15.3934 15.2793 15.4412C15.2993 15.489 15.3284 15.5323 15.3651 15.5688C15.4018 15.6053 15.4453 15.6343 15.4932 15.6539C15.5411 15.6736 15.5924 15.6836 15.6442 15.6834H16.2522C16.3567 15.6836 16.457 15.6423 16.5311 15.5686C16.6051 15.495 16.647 15.3949 16.6473 15.2904V10.842C16.6473 10.7907 16.637 10.7399 16.6173 10.6925C16.5976 10.6452 16.5687 10.6022 16.5323 10.566C16.4959 10.5299 16.4528 10.5012 16.4053 10.4817C16.3579 10.4623 16.3071 10.4523 16.2558 10.4525Z" fill="white"/>
</g>
<defs>
<clipPath id="clip0_543_15712">
<rect width="24" height="24" rx="12" fill="white"/>
</clipPath>
</defs>
</svg>
