<svg width="137" height="30" viewBox="0 0 137 30" fill="none" xmlns="http://www.w3.org/2000/svg">
<g clip-path="url(#clip0_54675_7387)">
<g clip-path="url(#clip1_54675_7387)">
<mask id="mask0_54675_7387" style="mask-type:luminance" maskUnits="userSpaceOnUse" x="0" y="0" width="137" height="30">
<path d="M136.333 0.215942H0.333496V29.3359H136.333V0.215942Z" fill="white"/>
</mask>
<g mask="url(#mask0_54675_7387)">
<mask id="mask1_54675_7387" style="mask-type:luminance" maskUnits="userSpaceOnUse" x="0" y="0" width="136" height="30">
<path d="M135.84 0.215942H0.333496V29.3359H135.84V0.215942Z" fill="white"/>
</mask>
<g mask="url(#mask1_54675_7387)">
<path d="M31.792 12.2136C31.792 12.3338 31.6906 12.434 31.569 12.434C31.4473 12.434 31.3459 12.3338 31.3459 12.2136C31.3459 12.0933 31.4473 11.9932 31.569 11.9932C31.6906 11.9932 31.792 12.0933 31.792 12.2136ZM31.0418 7.00372C30.9201 7.00372 30.8187 7.10392 30.8187 7.22414C30.8187 7.34436 30.9201 7.44456 31.0418 7.44456C31.1634 7.44456 31.2648 7.34436 31.2648 7.22414C31.2648 7.10392 31.1634 7.00372 31.0418 7.00372ZM11.617 3.80772C11.617 3.68749 11.5156 3.5873 11.394 3.5873C11.2723 3.5873 11.171 3.68749 11.171 3.80772C11.171 3.92795 11.2723 4.02813 11.394 4.02813C11.5156 4.02813 11.617 3.92795 11.617 3.80772ZM22.7487 5.34562C22.8704 5.34562 22.9717 5.24544 22.9717 5.12521C22.9717 5.00498 22.8704 4.90479 22.7487 4.90479C22.627 4.90479 22.5257 5.00498 22.5257 5.12521C22.5257 5.24544 22.627 5.34562 22.7487 5.34562ZM13.9235 5.29052C13.9235 5.17029 13.8221 5.0701 13.7004 5.0701C13.5788 5.0701 13.4774 5.17029 13.4774 5.29052C13.4774 5.41075 13.5788 5.51094 13.7004 5.51094C13.8221 5.51094 13.9235 5.41075 13.9235 5.29052ZM30.7377 8.92739C30.8593 8.92739 30.9607 8.8272 30.9607 8.70697C30.9607 8.58675 30.8593 8.48656 30.7377 8.48656C30.616 8.48656 30.5146 8.58675 30.5146 8.70697C30.5146 8.8272 30.616 8.92739 30.7377 8.92739ZM26.4846 10.5805C26.4846 11.7577 27.4478 12.7095 28.6391 12.7095C29.8303 12.7095 30.7934 11.7577 30.7934 10.5805C30.7934 9.4033 29.8252 8.45148 28.6391 8.45148C27.4529 8.45148 26.4846 9.4033 26.4846 10.5805ZM27.5796 7.41452C27.5796 7.90044 27.975 8.29114 28.4667 8.29114C28.9584 8.29114 29.3538 7.8954 29.3538 7.41452C29.3538 6.93362 28.9584 6.53787 28.4667 6.53787C27.975 6.53787 27.5796 6.93362 27.5796 7.41452ZM27.3616 8.34127C27.3616 8.22105 27.2602 8.12086 27.1386 8.12086C27.0169 8.12086 26.9155 8.22105 26.9155 8.34127C26.9155 8.46149 27.0169 8.56169 27.1386 8.56169C27.2602 8.56169 27.3616 8.46149 27.3616 8.34127ZM27.1842 5.73637C27.1943 5.97681 27.3971 6.16715 27.6455 6.16216C27.8888 6.15214 28.0815 5.95177 28.0764 5.7063C28.0662 5.46585 27.8635 5.27549 27.6151 5.2805C27.3717 5.29052 27.1792 5.4909 27.1842 5.73637ZM27.1842 4.53409C27.3059 4.53409 27.4072 4.43389 27.4072 4.31367C27.4072 4.19345 27.3059 4.09326 27.1842 4.09326C27.0626 4.09326 26.9612 4.19345 26.9612 4.31367C26.9612 4.43389 27.0626 4.53409 27.1842 4.53409ZM26.4289 7.34436C26.4289 7.58487 26.6266 7.78519 26.8749 7.78519C27.1234 7.78519 27.321 7.58991 27.321 7.34436C27.321 7.09895 27.1234 6.90859 26.8749 6.90859C26.6266 6.90859 26.4289 7.10392 26.4289 7.34436ZM23.0225 6.08203C23.0225 7.05385 23.8183 7.83532 24.7967 7.83532C25.775 7.83532 26.5708 7.04881 26.5708 6.08203C26.5708 5.11519 25.775 4.3287 24.7967 4.3287C23.8183 4.3287 23.0225 5.11519 23.0225 6.08203ZM24.3151 3.55724C24.4368 3.55724 24.5381 3.45706 24.5381 3.33683C24.5381 3.2166 24.4368 3.11641 24.3151 3.11641C24.1934 3.11641 24.092 3.2166 24.092 3.33683C24.092 3.45706 24.1934 3.55724 24.3151 3.55724ZM23.3013 4.58919C23.5446 4.57917 23.7372 4.37879 23.7271 4.13334C23.717 3.89287 23.5142 3.70252 23.2709 3.71254C23.0275 3.72256 22.8349 3.92294 22.84 4.16839C22.8501 4.40886 23.0529 4.59921 23.3013 4.5942M20.6856 3.47208C20.6856 3.958 21.081 4.34874 21.5727 4.34874C22.0644 4.34874 22.4598 3.95299 22.4598 3.47208C22.4598 2.99118 22.0644 2.59543 21.5727 2.59543C21.081 2.59543 20.6856 2.98616 20.6856 3.47208ZM20.8174 1.27794C20.9391 1.27794 21.0405 1.17775 21.0405 1.05752C21.0405 0.937297 20.9391 0.837107 20.8174 0.837107C20.6958 0.837107 20.5944 0.937297 20.5944 1.05752C20.5944 1.17775 20.6958 1.27794 20.8174 1.27794ZM20.7515 5.03503C20.8985 5.03503 21.0201 4.91481 21.0201 4.76953C21.0201 4.62426 20.9036 4.50403 20.7515 4.50403C20.5995 4.50403 20.4829 4.61925 20.4829 4.76953C20.4829 4.91982 20.6045 5.03503 20.7515 5.03503ZM27.8027 17.4285C27.681 17.4285 27.5796 17.5287 27.5796 17.6489C27.5796 17.769 27.681 17.8693 27.8027 17.8693C27.9243 17.8693 28.0257 17.769 28.0257 17.6489C28.0257 17.5287 27.9243 17.4285 27.8027 17.4285ZM15.8498 4.94988C15.8498 6.16216 16.8432 7.14404 18.07 7.14404C19.2967 7.14404 20.2902 6.16216 20.2902 4.94988C20.2902 3.73758 19.2967 2.75573 18.07 2.75573C16.8432 2.75573 15.8498 3.73758 15.8498 4.94988ZM19.4234 2.69562C19.6718 2.6856 19.8594 2.48522 19.8543 2.23975C19.8441 1.99931 19.6414 1.80894 19.3981 1.81896C19.1497 1.82898 18.9621 2.02936 18.9672 2.27483C18.9723 2.51527 19.1801 2.70564 19.4234 2.70062M18.4958 1.28295C18.6174 1.28295 18.7188 1.18276 18.7188 1.06254C18.7188 0.942303 18.6174 0.842113 18.4958 0.842113C18.3741 0.842113 18.2727 0.942303 18.2727 1.06254C18.2727 1.18276 18.3741 1.28295 18.4958 1.28295ZM16.311 3.2667C16.4327 3.2667 16.534 3.1665 16.534 3.04628C16.534 2.92605 16.4327 2.82587 16.311 2.82587C16.1894 2.82587 16.088 2.92605 16.088 3.04628C16.088 3.1665 16.1894 3.2667 16.311 3.2667ZM15.7787 6.49279C15.9004 6.49279 16.0017 6.39261 16.0017 6.27237C16.0017 6.15214 15.9004 6.05196 15.7787 6.05196C15.657 6.05196 15.5557 6.15214 15.5557 6.27237C15.5557 6.39261 15.657 6.49279 15.7787 6.49279ZM15.0488 4.31868C15.5405 4.31868 15.9358 3.92795 15.9358 3.44202C15.9358 2.95611 15.5405 2.56537 15.0488 2.56537C14.5571 2.56537 14.1617 2.95611 14.1617 3.44202C14.1617 3.92795 14.5571 4.31868 15.0488 4.31868ZM13.746 3.56225C13.8677 3.56225 13.9691 3.46206 13.9691 3.34183C13.9691 3.22161 13.8677 3.12142 13.746 3.12142C13.6244 3.12142 13.523 3.22161 13.523 3.34183C13.523 3.46206 13.6244 3.56225 13.746 3.56225ZM13.6345 4.58919C13.8778 4.58919 14.0806 4.39382 14.0806 4.14836C14.0806 3.90289 13.8829 3.70753 13.6345 3.70753C13.3861 3.70753 13.1884 3.90289 13.1884 4.14836C13.1884 4.39382 13.3861 4.58919 13.6345 4.58919ZM16.1082 7.58991C16.3668 7.58991 16.5746 7.38448 16.5746 7.12898C16.5746 6.87353 16.3668 6.66813 16.1082 6.66813C15.8498 6.66813 15.6419 6.87353 15.6419 7.12898C15.6419 7.38448 15.8498 7.58991 16.1082 7.58991ZM15.571 5.02502C15.571 4.76953 15.3631 4.56415 15.1045 4.56415C14.8461 4.56415 14.6382 4.76953 14.6382 5.02502C14.6382 5.2805 14.8461 5.48588 15.1045 5.48588C15.3631 5.48588 15.571 5.2805 15.571 5.02502ZM16.6253 7.69508C16.6253 7.89043 16.7824 8.04573 16.9801 8.04573C17.1778 8.04573 17.3349 7.89043 17.3349 7.69508C17.3349 7.49966 17.1778 7.34436 16.9801 7.34436C16.7824 7.34436 16.6253 7.49966 16.6253 7.69508ZM12.2507 3.3218C12.7424 3.3218 13.1377 2.92605 13.1377 2.44514C13.1377 1.96423 12.7373 1.56849 12.2507 1.56849C11.764 1.56849 11.3635 1.95922 11.3635 2.44514C11.3635 2.93106 11.764 3.3218 12.2507 3.3218ZM11.0239 1.60856C11.2672 1.59854 11.4599 1.39817 11.4548 1.1527C11.4447 0.912245 11.2419 0.721889 10.9935 0.731907C10.7502 0.741926 10.5576 0.942303 10.5677 1.18776C10.5779 1.42822 10.7806 1.61858 11.029 1.61358M10.3092 0.666785C10.4308 0.666785 10.5322 0.566595 10.5322 0.446368C10.5322 0.326142 10.4308 0.225952 10.3092 0.225952C10.1875 0.225952 10.0861 0.326142 10.0861 0.446368C10.0861 0.566595 10.1875 0.666785 10.3092 0.666785ZM9.67556 4.95488C10.4106 4.95488 11.0087 4.36377 11.0087 3.63739C11.0087 2.91102 10.4106 2.31991 9.67556 2.31991C8.94055 2.31991 8.34236 2.91102 8.34236 3.63739C8.34236 4.36377 8.94055 4.95488 9.67556 4.95488ZM8.70228 2.0494C8.82393 2.0494 8.92532 1.94921 8.92532 1.82898C8.92532 1.70875 8.82393 1.60856 8.70228 1.60856C8.58063 1.60856 8.47924 1.70875 8.47924 1.82898C8.47924 1.94921 8.58063 2.0494 8.70228 2.0494ZM7.93177 3.77265C8.05342 3.77265 8.15481 3.67246 8.15481 3.55223C8.15481 3.43201 8.05342 3.33181 7.93177 3.33181C7.81012 3.33181 7.70873 3.43201 7.70873 3.55223C7.70873 3.67246 7.81012 3.77265 7.93177 3.77265ZM4.52534 5.77644C4.52534 6.95863 5.4986 7.92053 6.69489 7.92053C7.89124 7.92053 8.86446 6.95863 8.86446 5.77644C8.86446 4.5942 7.89124 3.63239 6.69489 3.63239C5.4986 3.63239 4.52534 4.5942 4.52534 5.77644ZM4.794 3.89287C5.03732 3.89287 5.23501 3.69751 5.23501 3.45204C5.23501 3.20658 5.03732 3.01121 4.794 3.01121C4.55068 3.01121 4.34792 3.20658 4.34792 3.45204C4.34792 3.69751 4.54562 3.89287 4.794 3.89287ZM4.12995 7.43958C4.37326 7.43958 4.57603 7.24416 4.57603 6.99875C4.57603 6.7533 4.37833 6.55792 4.12995 6.55792C3.88156 6.55792 3.68387 6.7533 3.68387 6.99875C3.68387 7.24416 3.88156 7.43958 4.12995 7.43958ZM1.81844 7.57983C1.81844 8.06575 2.21383 8.45645 2.70553 8.45645C3.19724 8.45645 3.59262 8.06575 3.59262 7.57983C3.59262 7.09397 3.19724 6.70318 2.70553 6.70318C2.21383 6.70318 1.81844 7.09397 1.81844 7.57983ZM16.534 27.5075C16.1437 27.5075 15.8243 27.8231 15.8243 28.2088C15.8243 28.5945 16.1437 28.9101 16.534 28.9101C16.9244 28.9101 17.2438 28.5995 17.2438 28.2088C17.2438 27.8181 16.9244 27.5075 16.534 27.5075ZM2.09218 6.07699C2.33549 6.07699 2.53825 5.88166 2.53825 5.63617C2.53825 5.39071 2.34055 5.19534 2.09218 5.19534C1.84379 5.19534 1.6461 5.39071 1.6461 5.63617C1.6461 5.88166 1.84379 6.07699 2.09218 6.07699ZM2.22397 4.56915C2.34563 4.56915 2.44701 4.46897 2.44701 4.34874C2.44701 4.22851 2.34563 4.12832 2.22397 4.12832C2.10231 4.12832 2.00093 4.22851 2.00093 4.34874C2.00093 4.46897 2.10231 4.56915 2.22397 4.56915ZM1.33687 9.22791C1.47882 9.22791 1.59034 9.11273 1.59034 8.97752C1.59034 8.84218 1.47374 8.727 1.33687 8.727C1.20001 8.727 1.08342 8.84218 1.08342 8.97752C1.08342 9.11273 1.20001 9.22791 1.33687 9.22791ZM1.22029 12.7446C1.22029 12.5042 1.02259 12.3037 0.774206 12.3037C0.52582 12.3037 0.328125 12.4991 0.328125 12.7446C0.328125 12.9901 0.52582 13.1854 0.774206 13.1854C1.02259 13.1854 1.22029 12.9901 1.22029 12.7446ZM0.982039 18.7159C0.738722 18.7159 0.535958 18.9112 0.535958 19.1567C0.535958 19.4022 0.733653 19.5975 0.982039 19.5975C1.23043 19.5975 1.42812 19.4022 1.42812 19.1567C1.42812 18.9112 1.23043 18.7159 0.982039 18.7159ZM2.9083 19.282C2.4166 19.282 2.0212 19.6727 2.0212 20.1586C2.0212 20.6445 2.42166 21.0353 2.9083 21.0353C3.39493 21.0353 3.79539 20.6445 3.79539 20.1586C3.79539 19.6727 3.39493 19.282 2.9083 19.282ZM2.68526 22.4179C2.5636 22.4179 2.46222 22.5181 2.46222 22.6383C2.46222 22.7585 2.5636 22.8587 2.68526 22.8587C2.80692 22.8587 2.9083 22.7585 2.9083 22.6383C2.9083 22.5181 2.80692 22.4179 2.68526 22.4179ZM4.78893 20.3941C4.29723 20.3941 3.90184 20.7848 3.90184 21.2707C3.90184 21.7566 4.29723 22.1474 4.78893 22.1474C5.28063 22.1474 5.67602 21.7516 5.67602 21.2707C5.67602 20.7898 5.28063 20.3941 4.78893 20.3941ZM5.06773 22.5331C4.82441 22.5331 4.62165 22.7285 4.62165 22.9739C4.62165 23.2194 4.81934 23.4097 5.06773 23.4097C5.31612 23.4097 5.51381 23.2144 5.51381 22.9739C5.51381 22.7334 5.31612 22.5331 5.06773 22.5331ZM5.11335 19.3371C5.11335 19.9933 5.65068 20.5243 6.30967 20.5243C6.96865 20.5243 7.51106 19.9933 7.51106 19.3371C7.51106 18.6808 6.97369 18.1498 6.30967 18.1498C5.64561 18.1498 5.11335 18.6808 5.11335 19.3371ZM6.73546 8.37635C6.73546 8.25613 6.63409 8.15593 6.51242 8.15593C6.39076 8.15593 6.28938 8.25613 6.28938 8.37635C6.28938 8.49657 6.39076 8.59677 6.51242 8.59677C6.63409 8.59677 6.73546 8.49657 6.73546 8.37635ZM12.6612 6.77329C12.6612 6.89352 12.7626 6.99371 12.8843 6.99371C13.0059 6.99371 13.1073 6.89352 13.1073 6.77329C13.1073 6.65311 13.0059 6.55288 12.8843 6.55288C12.7626 6.55288 12.6612 6.65311 12.6612 6.77329ZM14.3898 4.84467C14.3898 4.72445 14.2885 4.62426 14.1668 4.62426C14.0451 4.62426 13.9437 4.72445 13.9437 4.84467C13.9437 4.9649 14.0451 5.06509 14.1668 5.06509C14.2885 5.06509 14.3898 4.9649 14.3898 4.84467ZM14.623 7.95554C14.623 8.07577 14.7244 8.17596 14.8461 8.17596C14.9677 8.17596 15.0691 8.07577 15.0691 7.95554C15.0691 7.83532 14.9677 7.73513 14.8461 7.73513C14.7244 7.73513 14.623 7.83532 14.623 7.95554ZM6.23867 17.9194C6.4009 17.9194 6.53775 17.7891 6.53775 17.6238C6.53775 17.4585 6.40595 17.3282 6.23867 17.3282C6.07139 17.3282 5.93962 17.4585 5.93962 17.6238C5.93962 17.7891 6.07139 17.9194 6.23867 17.9194ZM6.08663 8.83217C6.08663 8.1058 5.48847 7.51471 4.75345 7.51471C4.01843 7.51471 3.42028 8.1058 3.42028 8.83217C3.42028 9.55853 4.01843 10.1497 4.75345 10.1497C5.48847 10.1497 6.08663 9.55853 6.08663 8.83217ZM0.850242 14.1923C0.850242 14.6782 1.24563 15.0689 1.73733 15.0689C2.22903 15.0689 2.62443 14.6782 2.62443 14.1923C2.62443 13.7065 2.22903 13.3157 1.73733 13.3157C1.24563 13.3157 0.850242 13.7065 0.850242 14.1923ZM3.05023 14.0972C3.05023 14.3426 3.24792 14.538 3.49631 14.538C3.7447 14.538 3.94239 14.3426 3.94239 14.0972C3.94239 13.8517 3.7447 13.6614 3.49631 13.6614C3.24792 13.6614 3.05023 13.8566 3.05023 14.0972ZM5.33132 10.5855C5.33132 10.4653 5.22994 10.3651 5.10828 10.3651C4.98662 10.3651 4.88524 10.4653 4.88524 10.5855C4.88524 10.7057 4.98662 10.8059 5.10828 10.8059C5.22994 10.8059 5.33132 10.7057 5.33132 10.5855ZM4.5152 14.2875C4.75852 14.2875 4.96128 14.0922 4.96128 13.8466C4.96128 13.6012 4.76359 13.4058 4.5152 13.4058C4.26681 13.4058 4.06912 13.6012 4.06912 13.8466C4.06912 14.0922 4.26681 14.2875 4.5152 14.2875ZM4.91059 14.8085C5.03225 14.8085 5.13363 14.7083 5.13363 14.5881C5.13363 14.4678 5.03225 14.3677 4.91059 14.3677C4.78893 14.3677 4.68755 14.4678 4.68755 14.5881C4.68755 14.7083 4.78893 14.8085 4.91059 14.8085ZM3.97281 19.5775C3.97281 19.818 4.1705 20.0133 4.41889 20.0133C4.66727 20.0133 4.86497 19.818 4.86497 19.5775C4.86497 19.3371 4.66727 19.1367 4.41889 19.1367C4.1705 19.1367 3.97281 19.332 3.97281 19.5775ZM3.65345 18.9864C4.8599 18.9864 5.8433 18.0196 5.8433 16.8223C5.8433 15.625 4.86497 14.6582 3.65345 14.6582C2.44193 14.6582 1.4636 15.625 1.4636 16.8223C1.4636 18.0196 2.44193 18.9864 3.65345 18.9864ZM3.253 9.27804C3.253 9.0376 3.0553 8.83721 2.80692 8.83721C2.55853 8.83721 2.3659 9.03263 2.3659 9.27804C2.3659 9.52352 2.5636 9.71887 2.80692 9.71887C3.05023 9.71887 3.253 9.52352 3.253 9.27804ZM4.98662 11.7828C4.98662 10.8159 4.19078 10.0295 3.21244 10.0295C2.23411 10.0295 1.43825 10.8159 1.43825 11.7828C1.43825 12.7496 2.23411 13.5411 3.21244 13.5411C4.19078 13.5411 4.98662 12.7546 4.98662 11.7828ZM10.0963 22.6383C10.0963 21.466 9.123 20.5143 7.92674 20.5143C6.73042 20.5143 5.75713 21.466 5.75713 22.6383C5.75713 23.8105 6.73042 24.7623 7.92674 24.7623C9.123 24.7623 10.0963 23.8105 10.0963 22.6383ZM8.23594 25.6189C8.23594 25.3734 8.03826 25.1781 7.78986 25.1781C7.54145 25.1781 7.34378 25.3734 7.34378 25.6189C7.34378 25.8643 7.54145 26.0598 7.78986 26.0598C8.03826 26.0598 8.23594 25.8643 8.23594 25.6189ZM8.49447 26.9164C8.37282 26.9164 8.27143 27.0166 8.27143 27.1368C8.27143 27.257 8.37282 27.3572 8.49447 27.3572C8.61612 27.3572 8.71751 27.257 8.71751 27.1368C8.71751 27.0166 8.61612 26.9164 8.49447 26.9164ZM9.29028 24.6822C9.04697 24.6822 8.8442 24.8775 8.8442 25.123C8.8442 25.3684 9.04194 25.5638 9.29028 25.5638C9.53868 25.5638 9.73636 25.3684 9.73636 25.123C9.73636 24.8775 9.53868 24.6822 9.29028 24.6822ZM12.5548 24.4517C12.5548 23.7253 11.9566 23.1342 11.2216 23.1342C10.4866 23.1342 9.88847 23.7253 9.88847 24.4517C9.88847 25.1781 10.4866 25.7692 11.2216 25.7692C11.9566 25.7692 12.5548 25.1781 12.5548 24.4517ZM11.3331 27.8932C11.2115 27.8932 11.1101 27.9934 11.1101 28.1136C11.1101 28.2338 11.2115 28.334 11.3331 28.334C11.4548 28.334 11.5562 28.2338 11.5562 28.1136C11.5562 27.9934 11.4548 27.8932 11.3331 27.8932ZM11.9465 25.8143C11.7032 25.8143 11.5004 26.0096 11.5004 26.2551C11.5004 26.5006 11.6981 26.6959 11.9465 26.6959C12.1949 26.6959 12.3926 26.5006 12.3926 26.2551C12.3926 26.0096 12.1949 25.8143 11.9465 25.8143ZM12.9553 27.3672C12.7119 27.3672 12.5092 27.5626 12.5092 27.808C12.5092 28.0535 12.7069 28.2489 12.9553 28.2489C13.2036 28.2489 13.4014 28.0535 13.4014 27.808C13.4014 27.5626 13.2036 27.3672 12.9553 27.3672ZM11.9719 4.08324C11.2368 4.08324 10.6386 4.67436 10.6386 5.40073C10.6386 6.12711 11.2368 6.71819 11.9719 6.71819C12.7069 6.71819 13.305 6.12711 13.305 5.40073C13.305 4.67436 12.7069 4.08324 11.9719 4.08324ZM13.9539 24.7873C13.2188 24.7873 12.6207 25.3784 12.6207 26.1049C12.6207 26.8312 13.2188 27.4223 13.9539 27.4223C14.6889 27.4223 15.2871 26.8312 15.2871 26.1049C15.2871 25.3784 14.6889 24.7873 13.9539 24.7873ZM14.9728 27.8131C14.8511 27.8131 14.7497 27.9132 14.7497 28.0335C14.7497 28.1537 14.8511 28.2539 14.9728 28.2539C15.0944 28.2539 15.1958 28.1537 15.1958 28.0335C15.1958 27.9132 15.0944 27.8131 14.9728 27.8131ZM15.5963 27.3722C15.4746 27.3722 15.3732 27.4724 15.3732 27.5927C15.3732 27.7129 15.4746 27.8131 15.5963 27.8131C15.7179 27.8131 15.8193 27.7129 15.8193 27.5927C15.8193 27.4724 15.7179 27.3722 15.5963 27.3722ZM15.87 26.3253C15.6267 26.3253 15.4239 26.5206 15.4239 26.7661C15.4239 27.0115 15.6216 27.2069 15.87 27.2069C16.1184 27.2069 16.311 27.0115 16.311 26.7661C16.311 26.5206 16.1133 26.3253 15.87 26.3253ZM15.9815 25.2632C15.7382 25.2632 15.5354 25.4586 15.5354 25.7041C15.5354 25.9496 15.7331 26.1449 15.9815 26.1449C16.2299 26.1449 16.4225 25.9496 16.4225 25.7041C16.4225 25.4586 16.2248 25.2632 15.9815 25.2632ZM16.5695 8.48159C16.5695 8.09579 16.2501 7.78022 15.8598 7.78022C15.4695 7.78022 15.1502 8.09579 15.1502 8.48159C15.1502 8.86731 15.4695 9.18289 15.8598 9.18289C16.2501 9.18289 16.5695 8.86731 16.5695 8.48159ZM15.4137 6.59801C15.4137 6.02692 14.9474 5.56604 14.3644 5.56604C13.7815 5.56604 13.3202 6.02692 13.3202 6.59801C13.3202 7.16904 13.7866 7.63493 14.3644 7.63493C14.9423 7.63493 15.4137 7.17408 15.4137 6.59801ZM9.75159 5.38069C9.36127 5.38069 9.04697 5.69127 9.04697 6.07699C9.04697 6.46272 9.36127 6.77329 9.75159 6.77329C10.1419 6.77329 10.4562 6.46272 10.4562 6.07699C10.4562 5.69127 10.1419 5.38069 9.75159 5.38069ZM18.7999 24.1712C18.7999 24.3165 18.9216 24.4367 19.0685 24.4367C19.2156 24.4367 19.3372 24.3214 19.3372 24.1712C19.3372 24.0209 19.2156 23.9057 19.0685 23.9057C18.9216 23.9057 18.7999 24.0209 18.7999 24.1712ZM18.3893 24.5469C17.4059 24.5469 16.6151 25.3334 16.6151 26.3002C16.6151 27.267 17.411 28.0535 18.3893 28.0535C19.3677 28.0535 20.1635 27.267 20.1635 26.3002C20.1635 25.3334 19.3677 24.5469 18.3893 24.5469ZM20.8682 25.7291C20.6197 25.7291 20.4221 25.9245 20.4221 26.17C20.4221 26.4154 20.6197 26.6108 20.8682 26.6108C21.1165 26.6108 21.3142 26.4154 21.3142 26.17C21.3142 25.9245 21.1165 25.7291 20.8682 25.7291ZM22.404 25.8844C21.9123 25.8844 21.5169 26.2751 21.5169 26.7611C21.5169 27.247 21.9123 27.6377 22.404 27.6377C22.8958 27.6377 23.2911 27.247 23.2911 26.7611C23.2911 26.2751 22.8958 25.8844 22.404 25.8844ZM21.8718 28.2989C21.7501 28.2989 21.6488 28.3991 21.6488 28.5194C21.6488 28.6396 21.7501 28.7398 21.8718 28.7398C21.9935 28.7398 22.0949 28.6396 22.0949 28.5194C22.0949 28.3991 21.9935 28.2989 21.8718 28.2989ZM17.5834 28.9101C17.4617 28.9101 17.3603 29.0103 17.3603 29.1305C17.3603 29.2508 17.4617 29.351 17.5834 29.351C17.705 29.351 17.8064 29.2508 17.8064 29.1305C17.8064 29.0103 17.705 28.9101 17.5834 28.9101ZM22.9717 23.9608C22.7285 23.9608 22.5257 24.1561 22.5257 24.4016C22.5257 24.6471 22.7234 24.8424 22.9717 24.8424C23.2202 24.8424 23.4178 24.6471 23.4178 24.4016C23.4178 24.1561 23.2202 23.9608 22.9717 23.9608ZM22.3077 25.4937C22.4294 25.4937 22.5308 25.3935 22.5308 25.2733C22.5308 25.153 22.4294 25.0528 22.3077 25.0528C22.1861 25.0528 22.0847 25.153 22.0847 25.2733C22.0847 25.3935 22.1861 25.4937 22.3077 25.4937ZM20.0368 6.45269C20.0368 6.57292 20.1382 6.67311 20.2598 6.67311C20.3815 6.67311 20.4829 6.57292 20.4829 6.45269C20.4829 6.33246 20.3815 6.23227 20.2598 6.23227C20.1382 6.23227 20.0368 6.33246 20.0368 6.45269ZM21.4561 22.4329C21.4561 22.3127 21.3547 22.2125 21.233 22.2125C21.1114 22.2125 21.01 22.3127 21.01 22.4329C21.01 22.5531 21.1114 22.6533 21.233 22.6533C21.3547 22.6533 21.4561 22.5531 21.4561 22.4329ZM20.8985 22.8287C20.1635 22.8287 19.5653 23.4197 19.5653 24.1461C19.5653 24.8725 20.1635 25.4636 20.8985 25.4636C21.6335 25.4636 22.2317 24.8725 22.2317 24.1461C22.2317 23.4197 21.6335 22.8287 20.8985 22.8287ZM22.7082 7.00876C22.8299 7.00876 22.9313 6.90859 22.9313 6.78835C22.9313 6.66813 22.8299 6.56794 22.7082 6.56794C22.5865 6.56794 22.4852 6.66813 22.4852 6.78835C22.4852 6.90859 22.5865 7.00876 22.7082 7.00876ZM23.0986 20.4541C23.0986 20.6996 23.2962 20.895 23.5395 20.895C23.7828 20.895 23.9856 20.6996 23.9856 20.4541C23.9856 20.2087 23.7879 20.0183 23.5395 20.0183C23.2911 20.0183 23.0986 20.2137 23.0986 20.4541ZM23.0073 20.9701C22.2723 20.9701 21.6741 21.5613 21.6741 22.2876C21.6741 23.014 22.2723 23.6051 23.0073 23.6051C23.7422 23.6051 24.3404 23.014 24.3404 22.2876C24.3404 21.5613 23.7422 20.9701 23.0073 20.9701ZM25.1008 22.1123C24.8574 22.1123 24.6547 22.3077 24.6547 22.5531C24.6547 22.7986 24.8524 22.9889 25.1008 22.9889C25.3492 22.9889 25.5469 22.7936 25.5469 22.5531C25.5469 22.3127 25.3492 22.1123 25.1008 22.1123ZM26.1805 24.617C25.9372 24.6271 25.7446 24.8274 25.7547 25.0729C25.7597 25.3133 25.9676 25.5037 26.2109 25.4937C26.4593 25.4886 26.6469 25.2833 26.6418 25.0428C26.6317 24.7973 26.4289 24.612 26.1805 24.617ZM26.6418 23.5199C26.5202 23.5199 26.4188 23.6201 26.4188 23.7404C26.4188 23.8606 26.5202 23.9608 26.6418 23.9608C26.7634 23.9608 26.8649 23.8606 26.8649 23.7404C26.8649 23.6201 26.7634 23.5199 26.6418 23.5199ZM10.6843 22.9489C10.8313 22.9489 10.9529 22.8287 10.9529 22.6834C10.9529 22.5381 10.8313 22.4179 10.6843 22.4179C10.5373 22.4179 10.4156 22.5331 10.4156 22.6834C10.4156 22.8336 10.5322 22.9489 10.6843 22.9489ZM26.3022 17.6389C25.0755 17.6389 24.0819 18.6207 24.0819 19.833C24.0819 21.0453 25.0755 22.0272 26.3022 22.0272C27.5289 22.0272 28.5224 21.0453 28.5224 19.833C28.5224 18.6207 27.5289 17.6389 26.3022 17.6389ZM28.6847 17.734C28.4413 17.734 28.2386 17.9294 28.2386 18.1749C28.2386 18.4203 28.4362 18.6157 28.6847 18.6157C28.933 18.6157 29.1308 18.4203 29.1308 18.1749C29.1308 17.9294 28.933 17.734 28.6847 17.734ZM27.3465 12.7997C27.3465 12.6544 27.2298 12.5342 27.0828 12.5342C26.9358 12.5342 26.8141 12.6544 26.8141 12.7997C26.8141 12.945 26.9358 13.0652 27.0828 13.0652C27.2298 13.0652 27.3465 12.945 27.3465 12.7997ZM26.6824 17.0527C27.0828 17.0527 27.4022 16.7321 27.4022 16.3414C27.4022 15.9506 27.0828 15.6301 26.6824 15.6301C26.2819 15.6301 25.9626 15.9506 25.9626 16.3414C25.9626 16.7321 26.287 17.0527 26.6824 17.0527ZM26.1856 9.49342C26.064 9.49342 25.9626 9.59361 25.9626 9.71383C25.9626 9.83405 26.064 9.93425 26.1856 9.93425C26.3073 9.93425 26.4087 9.83405 26.4087 9.71383C26.4087 9.59361 26.3073 9.49342 26.1856 9.49342ZM25.4405 17.203C25.4405 17.3232 25.5367 17.4234 25.6635 17.4234C25.7902 17.4234 25.8866 17.3232 25.8866 17.203C25.8866 17.0828 25.7852 16.9826 25.6635 16.9826C25.5418 16.9826 25.4405 17.0828 25.4405 17.203ZM29.3437 14.3176C29.3437 13.5912 28.7455 13.0001 28.0105 13.0001C27.2755 13.0001 26.6773 13.5912 26.6773 14.3176C26.6773 15.0439 27.2755 15.6351 28.0105 15.6351C28.7455 15.6351 29.3437 15.0439 29.3437 14.3176ZM28.9989 15.7352C28.5073 15.7352 28.1119 16.131 28.1119 16.6118C28.1119 17.0928 28.5073 17.4885 28.9989 17.4885C29.4906 17.4885 29.886 17.0928 29.886 16.6118C29.886 16.131 29.4906 15.7352 28.9989 15.7352ZM30.1395 17.5136C29.8962 17.5236 29.7035 17.724 29.7086 17.9695C29.7188 18.2099 29.9215 18.4003 30.1699 18.3903C30.4133 18.3802 30.6058 18.1799 30.5957 17.9343C30.5907 17.694 30.3828 17.5036 30.1395 17.5086M30.5197 18.781C30.398 18.781 30.2966 18.8812 30.2966 19.0014C30.2966 19.1216 30.398 19.2218 30.5197 19.2218C30.6413 19.2218 30.7427 19.1216 30.7427 19.0014C30.7427 18.8812 30.6413 18.781 30.5197 18.781ZM30.8492 12.6795C30.6058 12.6894 30.4133 12.8899 30.4183 13.1353C30.4284 13.3758 30.6312 13.5661 30.8796 13.5612C31.1229 13.5512 31.3155 13.3507 31.3054 13.1053C31.2953 12.8648 31.0925 12.6745 30.8441 12.6845M26.5455 8.69199C26.5455 8.35128 26.2769 8.07577 25.9525 8.07577C25.628 8.07577 25.3593 8.35128 25.3593 8.69199C25.3593 9.03263 25.6229 9.31312 25.9525 9.31312C26.2819 9.31312 26.5455 9.0376 26.5455 8.69199ZM24.8118 8.23106C24.8118 8.35128 24.9132 8.45148 25.0349 8.45148C25.1566 8.45148 25.2579 8.35128 25.2579 8.23106C25.2579 8.11084 25.1566 8.01065 25.0349 8.01065C24.9132 8.01065 24.8118 8.11084 24.8118 8.23106ZM22.4649 5.84157C22.4649 5.35564 22.0694 4.9649 21.5777 4.9649C21.0861 4.9649 20.6907 5.35564 20.6907 5.84157C20.6907 6.32748 21.0861 6.71819 21.5777 6.71819C22.0694 6.71819 22.4649 6.32249 22.4649 5.84157ZM7.96727 19.6977C7.79999 19.6977 7.6682 19.828 7.6682 19.9933C7.6682 20.1586 7.79999 20.2888 7.96727 20.2888C8.13455 20.2888 8.26633 20.1586 8.26633 19.9933C8.26633 19.828 8.13455 19.6977 7.96727 19.6977ZM10.6285 27.1969C10.9529 27.1969 11.2166 26.9364 11.2166 26.6208C11.2166 26.3052 10.9529 26.0397 10.6285 26.0397C10.3041 26.0397 10.0405 26.3002 10.0405 26.6208C10.0405 26.9414 10.3041 27.1969 10.6285 27.1969Z" fill="url(#paint0_linear_54675_7387)"/>
<path d="M50.3599 8.8773V9.95929C49.3106 9.09772 47.9571 8.59681 46.4364 8.59681C42.7867 8.59681 39.8618 11.6525 39.8618 15.6251C39.8618 17.4585 40.5258 19.1266 41.5751 20.3489C42.7613 21.7366 44.6419 22.6282 46.6341 22.6282C47.9875 22.6282 49.26 22.2125 50.365 21.2657V22.3477H53.817V8.87233H50.365L50.3599 8.8773ZM50.223 17.6288C49.5337 18.6257 48.3424 19.297 46.989 19.297C44.9715 19.297 43.4507 17.739 43.4507 15.63C43.4507 13.6864 44.8042 11.933 46.9027 11.933C48.2866 11.933 49.4729 12.5993 50.2179 13.6012V17.6288H50.223ZM68.8013 19.6026C67.2245 21.7165 65.2378 22.6282 62.7235 22.6282C58.5772 22.6282 55.5405 19.5174 55.5405 15.6251C55.5405 11.7327 58.6633 8.59177 62.7541 8.59177C65.0757 8.59177 67.1486 9.67376 68.3906 11.2868L65.8458 13.5361C65.1261 12.5943 64.0517 11.928 62.749 11.928C60.6755 11.928 59.1297 13.5662 59.1297 15.6251C59.1297 17.6839 60.65 19.292 62.83 19.292C64.2948 19.292 65.4559 18.4053 66.0334 17.5136L68.7966 19.5975L68.8013 19.6026ZM79.4868 22.3527C79.0156 22.518 77.9405 22.6282 77.2517 22.6282C75.0974 22.6282 73.5205 21.9069 72.6086 20.6846C71.9184 19.7679 71.6145 18.5706 71.6145 16.657V11.933H69.3739V8.8773H71.6145V5.12521H75.209V8.8773H79.4923V11.933H75.209V17.0727C75.209 17.9043 75.3504 18.4053 75.6496 18.766C76.0093 19.1818 76.5873 19.4322 77.474 19.4322C78.0017 19.4322 78.6912 19.3471 78.9394 19.292L79.4923 22.3477L79.4868 22.3527ZM81.9756 8.8773H85.5701V22.3527H81.9756V8.8773ZM101.943 8.8773L95.779 22.3527H93.2902L87.126 8.8773H90.8564L94.5318 17.1028L98.2073 8.8773H101.938H101.943ZM108.502 17.734C109.004 18.1899 109.536 18.5556 110.114 18.8311C110.687 19.1066 111.362 19.2419 112.142 19.2419C112.659 19.2419 113.11 19.1617 113.491 19.0064C113.871 18.8511 114.18 18.6458 114.418 18.3903C114.656 18.1348 114.833 17.8442 114.945 17.5136C115.057 17.183 115.112 16.8474 115.112 16.4967C115.112 16.2212 115.057 15.9306 114.945 15.62C114.833 15.3094 114.656 15.0239 114.418 14.7685C114.18 14.513 113.861 14.3026 113.475 14.1372C113.085 13.9719 112.614 13.8918 112.061 13.8918C111.579 13.8918 111.133 13.9419 110.727 14.042C110.322 14.1422 109.932 14.2675 109.562 14.4128L107.732 13.0702L109.257 4.94988H118.696V8.40636H112.011L111.483 11.1766C111.61 11.1215 111.848 11.0714 112.193 11.0264C112.538 10.9813 112.882 10.9562 113.233 10.9562C114.083 10.9562 114.869 11.0865 115.589 11.3419C116.309 11.5974 116.938 11.9682 117.465 12.4541C117.992 12.9399 118.397 13.5211 118.686 14.1973C118.975 14.8736 119.117 15.635 119.117 16.4716C119.117 17.3082 118.981 18.0797 118.717 18.8311C118.447 19.5825 118.033 20.2387 117.47 20.8048C116.907 21.3709 116.193 21.8267 115.33 22.1624C114.469 22.498 113.449 22.6684 112.264 22.6684C110.931 22.6684 109.795 22.4629 108.853 22.0522C107.909 21.6414 107.083 21.1154 106.384 20.4742L108.523 17.734H108.502ZM129.25 12.9399H135.84V20.2588C134.953 21.0202 133.914 21.6063 132.727 22.0171C131.542 22.4329 130.188 22.6383 128.668 22.6383C127.268 22.6383 126.016 22.4229 124.911 21.9921C123.811 21.5612 122.874 20.9601 122.102 20.1787C121.332 19.4022 120.749 18.4754 120.349 17.3934C119.948 16.3114 119.746 15.1241 119.746 13.8216C119.746 12.5192 119.958 11.382 120.385 10.3C120.81 9.21794 121.418 8.2762 122.204 7.47464C122.99 6.67313 123.923 6.04195 124.997 5.58608C126.072 5.13022 127.268 4.89978 128.586 4.89978C130.143 4.89978 131.506 5.18031 132.676 5.74639C133.848 6.31243 134.816 7.10396 135.587 8.11586L132.971 10.5755C132.423 9.93429 131.82 9.40825 131.167 9.00256C130.507 8.59681 129.701 8.39635 128.743 8.39635C127.957 8.39635 127.258 8.5417 126.639 8.82724C126.027 9.11277 125.504 9.50347 125.078 9.99443C124.653 10.4853 124.328 11.0564 124.105 11.7176C123.882 12.3739 123.77 13.0752 123.77 13.8216C123.77 14.6332 123.898 15.3645 124.156 16.0258C124.414 16.682 124.769 17.2481 125.23 17.709C125.692 18.1748 126.234 18.5305 126.858 18.786C127.481 19.0415 128.161 19.1667 128.896 19.1667C129.58 19.1667 130.203 19.0866 130.766 18.9263C131.329 18.766 131.835 18.5105 132.277 18.1548V16.0258H129.25V12.9349V12.9399Z" fill="#9C278C"/>
</g>
</g>
</g>
</g>
<defs>
<linearGradient id="paint0_linear_54675_7387" x1="4.35299" y1="24.597" x2="26.383" y2="2.30465" gradientUnits="userSpaceOnUse">
<stop stop-color="#2D3486"/>
<stop offset="0.12" stop-color="#353287"/>
<stop offset="0.13" stop-color="#353187"/>
<stop offset="0.38" stop-color="#9C278C"/>
<stop offset="0.41" stop-color="#A62785"/>
<stop offset="0.55" stop-color="#D62967"/>
<stop offset="0.62" stop-color="#E92A5C"/>
<stop offset="0.67" stop-color="#E93254"/>
<stop offset="0.76" stop-color="#EB4B40"/>
<stop offset="0.85" stop-color="#EF6F23"/>
<stop offset="1" stop-color="#F7A326"/>
</linearGradient>
<clipPath id="clip0_54675_7387">
<rect width="136" height="30" fill="white" transform="translate(0.333496)"/>
</clipPath>
<clipPath id="clip1_54675_7387">
<rect width="136" height="29.568" fill="white" transform="translate(0.333496 0.215942)"/>
</clipPath>
</defs>
</svg>
