<svg width="138" height="20" viewBox="0 0 138 20" fill="none" xmlns="http://www.w3.org/2000/svg">
<path d="M137.3 0C137.503 0.000121624 137.668 0.165257 137.668 0.368164V16.2441C137.668 16.3428 137.628 16.4366 137.557 16.5078L134.179 19.8867C134.108 19.9581 134.014 19.9971 133.915 19.9971H109.776C109.573 19.9969 109.409 19.8319 109.409 19.6289V4.38867C109.409 4.29016 109.447 4.19718 109.518 4.12598L113.534 0.110352C113.605 0.0390329 113.699 1.70106e-07 113.798 0H137.3ZM25.2538 0.197266C25.4402 0.197329 25.5887 0.345814 25.5887 0.532227V17.6816C25.5887 17.7694 25.5495 17.8576 25.4891 17.918L23.6024 19.8047C23.5421 19.8706 23.4538 19.9033 23.3661 19.9033H21.4794C21.2929 19.9033 21.1447 19.7556 21.1444 19.5693V16.6504C21.1444 16.464 20.9967 16.3157 20.8104 16.3154H9.0702C8.98248 16.3154 8.8942 16.3538 8.83387 16.4141L5.43836 19.8105C5.37801 19.8763 5.28979 19.9092 5.20203 19.9092H0.999883C0.703688 19.9091 0.55608 19.5472 0.764531 19.3389L19.7899 0.296875C19.8502 0.231081 19.9375 0.197304 20.0253 0.197266H25.2538ZM34.1298 0.197266C34.3162 0.197266 34.4646 0.345775 34.4647 0.532227V15.9863C34.4647 16.1729 34.6132 16.3213 34.7997 16.3213H46.7977C46.9839 16.3215 47.1315 16.4691 47.1317 16.6553V17.6758C47.1317 17.7636 47.0934 17.8518 47.0331 17.9121L45.1346 19.8105C45.0743 19.8761 44.9869 19.9091 44.8993 19.9092H30.3554C30.1689 19.909 30.0214 19.7606 30.0214 19.5742V2.43066C30.0214 2.34288 30.0596 2.25469 30.12 2.19434L32.0184 0.296875C32.0788 0.23106 32.1661 0.197271 32.2538 0.197266H34.1298ZM64.0341 0.197266C64.2205 0.197266 64.3689 0.345775 64.369 0.532227V1.55273C64.369 1.6405 64.3307 1.72871 64.2704 1.78906L62.372 3.68652C62.3117 3.7523 62.2243 3.78509 62.1366 3.78516H55.2567C55.0703 3.78529 54.9228 3.93373 54.9227 4.12012V19.5742C54.9227 19.7607 54.7742 19.9091 54.5878 19.9092H50.8134C50.6267 19.9092 50.4784 19.7607 50.4784 19.5742V4.12012C50.4783 3.93378 50.3307 3.78538 50.1444 3.78516H41.3612C41.1748 3.78516 41.0264 3.63759 41.0262 3.45117V2.43066C41.0262 2.34288 41.0645 2.25469 41.1249 2.19434L43.0233 0.296875C43.0836 0.231113 43.1711 0.197335 43.2587 0.197266H64.0341ZM85.1561 0.192383C85.3423 0.192627 85.4899 0.34021 85.4901 0.526367V1.54199C85.49 1.62962 85.4517 1.71706 85.3915 1.77734L83.4882 3.68164C83.4278 3.74745 83.3395 3.78027 83.2518 3.78027H72.3563C72.1702 3.78051 72.0226 3.92807 72.0223 4.11426V7.92188C72.0223 8.10825 72.17 8.2566 72.3563 8.25684H78.9071C79.0936 8.25688 79.2418 8.40453 79.2421 8.59082V11.5098C79.2421 11.6963 79.0937 11.8447 78.9071 11.8447H72.3563C72.1702 11.845 72.0226 11.9925 72.0223 12.1787V15.9863C72.0223 16.1728 72.17 16.3211 72.3563 16.3213H85.1561C85.3423 16.3215 85.4899 16.4691 85.4901 16.6553V17.6758C85.4901 17.7636 85.4518 17.8518 85.3915 17.9121L83.493 19.8105C83.4328 19.876 83.3453 19.9091 83.2577 19.9092H67.913C67.7265 19.9091 67.578 19.7607 67.578 19.5742V2.4248C67.5781 2.33708 67.6173 2.24976 67.6776 2.18945L69.5751 0.291016C69.6354 0.225184 69.7236 0.192383 69.8114 0.192383H85.1561ZM93.0223 0.197266C93.2087 0.197357 93.3562 0.345832 93.3563 0.532227V15.9863H93.3514C93.3514 16.1728 93.4992 16.321 93.6854 16.3213H105.656C105.842 16.3213 105.991 16.469 105.991 16.6553V17.6758C105.991 17.7636 105.953 17.8518 105.892 17.9121L103.994 19.8105C103.934 19.8761 103.846 19.9091 103.759 19.9092H88.8856L88.913 2.43066C88.913 2.34288 88.9512 2.25469 89.0116 2.19434L90.91 0.296875C90.9704 0.231043 91.0586 0.197266 91.1464 0.197266H93.0223ZM125.658 5.0752L123.958 6.77539V13.5996L125.291 14.9336H131.556L132.91 13.5781V9.55176H129.834L128.725 10.6592C128.688 10.6975 128.664 10.7471 128.664 10.8018V11.1426C128.664 11.2522 128.758 11.3457 128.868 11.3457H130.876V12.75L130.491 13.1338H126.821L126.004 12.3164V7.47168L126.613 6.86328H130.36L130.349 6.86914L130.864 7.38477V8.69043H132.9V6.69336H132.905L131.287 5.0752V5.06348L125.658 5.0752ZM114.165 10.8955H119.607L120.305 11.5918V12.3818L119.558 13.1279H114.16V14.9219H121.007L122.34 13.5889V10.3906L121.045 9.0957H116.201V6.86328H121.808L122.345 6.3252V5.06934H114.165V10.8955ZM21.1444 4.91016C21.1444 4.61395 20.7826 4.46635 20.5741 4.6748L13.0907 12.1572C12.8825 12.3657 13.0309 12.7275 13.327 12.7275H20.8104C20.9966 12.7273 21.1442 12.5798 21.1444 12.3936V4.91016Z" fill="#E72487"/>
</svg>
