<svg width="75" height="32" viewBox="0 0 75 32" fill="none" xmlns="http://www.w3.org/2000/svg">
<g clip-path="url(#clip0_54675_7089)">
<path d="M15.151 6.07755L15.5042 6.08494C16.287 6.14647 18.5479 6.3877 19.9941 8.52924C19.8734 8.62155 17.311 10.0997 17.3417 13.2086C17.3725 16.9219 20.5959 18.16 20.6267 18.1908C20.5959 18.2819 20.1147 19.9422 18.9405 21.6616C17.9153 23.1729 16.8605 24.6523 15.1719 24.6819C13.5448 24.7126 13.0021 23.7157 11.135 23.7157C9.26544 23.7157 8.66359 24.6511 7.12636 24.7126C5.49928 24.7717 4.26359 23.1102 3.23959 21.6025C1.12882 18.5526 -0.467485 12.9994 1.70113 9.25417C2.75713 7.3834 4.68575 6.20555 6.76452 6.17478C8.36205 6.14647 9.83775 7.23324 10.8027 7.23324C11.7676 7.23324 13.4845 5.96555 15.5042 6.08494L15.151 6.07755ZM15.5202 0.151398C15.6704 1.60494 15.0968 3.02771 14.2501 4.0874C13.3737 5.11755 11.9854 5.93355 10.5947 5.81294C10.4125 4.4197 11.1079 2.93786 11.8944 2.02955C12.7682 0.968628 14.2796 0.212936 15.519 0.151398H15.5202ZM34.8396 1.87817C39.2285 1.87817 42.2857 4.90586 42.2857 9.31694C42.2857 13.7428 39.1657 16.7877 34.7288 16.7877H29.871V24.5243H26.3596V1.87817H34.8396ZM29.871 13.8363H33.8981C36.9541 13.8363 38.6944 12.1896 38.6944 9.3317C38.6944 6.47632 36.9541 4.84432 33.9128 4.84432H29.8697V13.8363H29.871ZM43.1559 19.8326C43.1559 16.928 45.3664 15.2652 49.4414 15.0142L53.8144 14.7471V13.4917C53.8144 11.6554 52.6082 10.6511 50.4605 10.6511C48.6882 10.6511 47.4033 11.5619 47.1374 12.9576H43.9707C44.0654 10.0234 46.8236 7.88924 50.5541 7.88924C54.5664 7.88924 57.1842 9.9914 57.1842 13.2554V24.5243H53.9399V21.8092H53.8611C52.9368 23.5828 50.8987 24.6966 48.6882 24.6966C45.4279 24.6966 43.1559 22.752 43.1559 19.8326ZM53.8144 18.3729V17.1016L49.9116 17.3526C47.7171 17.4929 46.5725 18.3102 46.5725 19.7379C46.5725 21.1188 47.7639 22.0148 49.6297 22.0148C52.0113 22.0148 53.8144 20.4911 53.8144 18.3717V18.3729ZM60.1676 30.5822V27.8671C60.3867 27.8991 60.9196 27.9299 61.2014 27.9299C62.7534 27.9299 63.631 27.2714 64.1639 25.5766L64.4777 24.5711L58.5381 8.09355H62.2057L66.3448 21.4634H66.4224L70.5614 8.09355H74.1344L67.9731 25.4031C66.5627 29.3736 64.9479 30.6769 61.5313 30.6769C61.2642 30.6769 60.4027 30.6449 60.1676 30.5822Z" fill="black"/>
</g>
<defs>
<clipPath id="clip0_54675_7089">
<rect width="73.8462" height="32" fill="white" transform="translate(0.666992)"/>
</clipPath>
</defs>
</svg>
