<svg width="82" height="32" viewBox="0 0 82 32" fill="none" xmlns="http://www.w3.org/2000/svg">
<path d="M37.5731 4.32618V12.4037H42.5306C43.7121 12.4037 44.6894 12.0049 45.4623 11.2074C46.2561 10.4123 46.6524 9.46218 46.6524 8.36433C46.6524 7.28741 46.2561 6.34957 45.4623 5.55203C44.6894 4.73357 43.7134 4.32495 42.5331 4.32495H37.5718L37.5731 4.32618ZM37.5731 15.2468V24.6166H34.6094V1.48187H42.4666C44.4629 1.48187 46.1589 2.15141 47.5546 3.48556C48.9712 4.82095 49.6801 6.4468 49.6801 8.36433C49.6801 10.325 48.9712 11.9619 47.5546 13.2751C46.1811 14.5896 44.4838 15.2443 42.4666 15.2443H37.5731V15.2468ZM54.0149 21.7083C54.6685 22.2253 55.4364 22.4837 56.3165 22.4837C57.562 22.4837 58.6709 22.0209 59.6481 21.0954C60.6266 20.1686 61.1128 19.0806 61.1128 17.8339C60.1897 17.1003 58.9011 16.7348 57.2481 16.7348C56.0457 16.7348 55.0451 17.0253 54.2389 17.6086C53.434 18.1896 53.0315 18.9083 53.0315 19.7699C53.0315 20.5453 53.3589 21.1914 54.0149 21.7096V21.7083ZM62.0506 10.0283C63.3158 11.2037 63.9497 12.8136 63.9497 14.8603V24.6154H61.1152V22.4197H60.986C59.7626 24.2277 58.1306 25.1323 56.0912 25.1323C54.3521 25.1323 52.8974 24.6154 51.7281 23.5816C50.5589 22.5477 49.9731 21.2554 49.9731 19.7046C49.9731 18.0677 50.5897 16.7656 51.8241 15.7957C53.0586 14.8271 54.7066 14.341 56.7681 14.341C58.5257 14.341 59.9768 14.6634 61.1128 15.3096V14.6302C61.1128 13.5976 60.7041 12.72 59.8894 11.9976C59.1054 11.2876 58.0817 10.9007 57.0241 10.9145C55.3712 10.9145 54.0629 11.616 53.0968 13.0166L50.4875 11.3674C51.9263 9.29972 54.0506 8.26587 56.8654 8.26587C59.0561 8.26587 60.7817 8.85418 62.0506 10.0259V10.0283ZM80.394 8.61541L70.5072 31.4265H67.45L71.1201 23.4462L64.6155 8.61541H67.8352L72.5368 19.9902H72.6008L77.1743 8.61541H80.394Z" fill="#5F6368"/>
<path d="M25.9705 13.5951C25.9705 12.6597 25.893 11.7576 25.7428 10.8936H13.248V16.0136H20.405C20.2589 16.8304 19.9492 17.6094 19.4945 18.3035C19.0397 18.9977 18.4494 19.5927 17.7588 20.0529V23.3772H22.0296C24.5305 21.0634 25.9705 17.6419 25.9705 13.5951Z" fill="#4285F4"/>
<path d="M13.2479 26.5859C16.8233 26.5859 19.8325 25.4081 22.0295 23.3773L17.7587 20.053C16.5698 20.8554 15.0387 21.3256 13.2479 21.3256C9.79316 21.3256 6.86024 18.9871 5.81039 15.8364H1.41162V19.2628C2.51049 21.4617 4.1997 23.3114 6.29014 24.6047C8.38058 25.8981 10.7897 26.5841 13.2479 26.5859Z" fill="#34A853"/>
<path d="M5.81047 15.8376C5.25776 14.1866 5.25776 12.4006 5.81047 10.7496V7.32312H1.4117C0.480662 9.17591 -0.00284905 11.2212 1.26289e-05 13.2948C1.26289e-05 15.4413 0.509551 17.4696 1.4117 19.264L5.81047 15.8388V15.8376Z" fill="#FABB05"/>
<path d="M13.2482 5.26277C15.2002 5.26277 16.9516 5.936 18.3313 7.25538V7.25785L22.1122 3.46338C19.8156 1.31692 16.8223 0 13.2506 0C10.7918 0.00115309 8.38189 0.68682 6.29073 1.9802C4.19958 3.27359 2.5098 5.12362 1.41064 7.32308L5.81064 10.7495C6.85926 7.6 9.79341 5.26277 13.2482 5.26277Z" fill="#E94235"/>
</svg>
