<svg width="87" height="28" viewBox="0 0 87 28" fill="none" xmlns="http://www.w3.org/2000/svg">
<g clip-path="url(#clip0_54675_7422)">
<path d="M42.7968 0.978271H37.2727C36.2494 0.978271 35.4199 1.81008 35.4199 2.83618V26.043C35.4199 27.0691 36.2494 27.9009 37.2727 27.9009H42.7968C43.82 27.9009 44.6495 27.0691 44.6495 26.043V2.83618C44.6495 1.81008 43.82 0.978271 42.7968 0.978271Z" fill="#000401"/>
<path d="M84.1932 0.978271H78.6691C77.6459 0.978271 76.8164 1.81008 76.8164 2.83618V26.043C76.8164 27.0691 77.6459 27.9009 78.6691 27.9009H84.1932C85.2165 27.9009 86.046 27.0691 86.046 26.043V2.83618C86.046 1.81008 85.2165 0.978271 84.1932 0.978271Z" fill="#000401"/>
<path d="M71.2355 20.1501C72.2472 20.1501 73.0655 20.9708 73.0655 21.9852V26.0658C73.0655 27.0802 72.2472 27.9009 71.2355 27.9009H50.3211C49.2981 27.9009 48.4684 27.0689 48.4684 26.043C48.4684 25.6783 48.582 25.3135 48.7866 25.0057L59.744 8.72907H50.162C49.1504 8.72907 48.332 7.9084 48.332 6.89395V2.81339C48.332 1.79895 49.1504 0.978271 50.162 0.978271H71.2696C72.2926 0.978271 73.1224 1.81034 73.1224 2.83618C73.1224 3.21232 73.0201 3.56567 72.8154 3.87342L61.8808 20.1501H71.2355Z" fill="#000401"/>
<path d="M14.3584 27.901C21.7722 27.901 27.7823 21.8742 27.7823 14.4397C27.7823 7.00523 21.7722 0.978394 14.3584 0.978394C6.94463 0.978394 0.93457 7.00523 0.93457 14.4397C0.93457 21.8742 6.94463 27.901 14.3584 27.901Z" fill="url(#paint0_linear_54675_7422)"/>
<path d="M18.5746 26.157C22.6926 26.157 26.031 22.8093 26.031 18.6797C26.031 14.5502 22.6926 11.2025 18.5746 11.2025C14.4565 11.2025 11.1182 14.5502 11.1182 18.6797C11.1182 22.8093 14.4565 26.157 18.5746 26.157Z" fill="#000401"/>
</g>
<defs>
<linearGradient id="paint0_linear_54675_7422" x1="6.90281" y1="21.9212" x2="21.757" y2="7.10851" gradientUnits="userSpaceOnUse">
<stop stop-color="#00F1FF"/>
<stop offset="1" stop-color="#FF00D7"/>
</linearGradient>
<clipPath id="clip0_54675_7422">
<rect width="86" height="28" fill="white" transform="translate(0.666992)"/>
</clipPath>
</defs>
</svg>
