<svg width="118" height="26" viewBox="0 0 118 26" fill="none" xmlns="http://www.w3.org/2000/svg">
<g clip-path="url(#clip0_54675_7376)">
<path fill-rule="evenodd" clip-rule="evenodd" d="M45.2852 7.66949C40.215 7.66949 37.0934 11.5298 37.0934 16.1687C37.0934 20.1706 39.3817 24.6035 45.2852 24.6035C50.6501 24.6035 52.1693 21.1486 52.791 19.2184H49.9963C49.3553 19.2184 48.8874 19.4757 48.4516 20.0162C48.2657 20.2221 47.3299 21.2965 45.4454 21.2965C41.6316 21.2965 41.5739 18.2533 41.5034 17.2239H53.073C53.3998 12.5593 50.945 7.66306 45.2915 7.66306M41.5034 14.4251C41.5034 14.097 41.7598 10.9959 45.1698 10.9959C47.4196 10.9959 48.2401 12.2826 48.6695 14.4251H41.5034ZM55.7973 2.04623C59.5599 2.04623 60.1367 2.61885 60.1689 5.61707V24.2625C56.3867 24.2625 55.8227 23.201 55.7973 20.1513V2.04623ZM64.2967 2.04623C68.0657 2.04623 68.6424 2.61885 68.6677 5.61707V24.2625C64.886 24.2625 64.3284 23.201 64.2967 20.1513V2.04623ZM35.3885 18.0345C34.7731 22.6413 31.5746 24.61 27.6647 24.61C23.1906 24.61 19.5754 21.5989 19.5754 16.3617C19.5754 11.6842 22.2355 7.67592 27.7544 7.67592C31.4977 7.67592 35.0615 9.62542 35.2923 13.7817H32.1964C31.2285 13.7817 30.9079 13.2992 30.7029 12.7587C30.3119 11.7743 29.4145 11.0152 27.7223 11.0152C25.011 11.0152 23.9726 13.7109 23.9726 16.1751C23.9726 18.7744 24.979 21.3158 27.6326 21.3158C29.3376 21.3158 30.3375 20.5759 30.8888 19.0704C31.267 18.0088 32.2797 18.0475 32.2797 18.0475H35.3885V18.0345ZM0 2.0398C4.29455 2.0398 4.8458 3.14643 4.85221 6.36982V11.2596C4.85221 11.2596 9.7749 5.99665 11.6082 4.06649C13.4285 2.12988 14.9156 2.04623 17.2103 2.04623H19.5819L10.9351 10.8221L20.4215 24.269H18.0692C14.8258 24.269 13.9541 23.7607 12.1402 21.0263C10.3261 18.2919 7.63403 14.2772 7.63403 14.2772L4.8458 17.1145V24.269H0V2.0398ZM117.831 24.7387H114.511L114.011 22.0107C112.165 24.269 109.921 25.3113 106.832 25.3113C100.192 25.3113 95.5952 20.2285 95.5952 12.8553C95.5952 5.48196 100.429 0.264038 107.338 0.264038C112.774 0.264038 116.895 3.59681 117.536 8.64742H114.223C113.312 8.64742 112.441 8.16492 112.043 7.34135C111.223 5.62991 109.537 4.67128 107.274 4.67128C103.28 4.67128 100.871 7.73381 100.871 12.8553C100.871 17.9766 103.287 21.1035 107.447 21.1035C110.735 21.1035 113.017 18.916 113.146 15.6861H107.813V14.3158C107.813 12.9131 108.941 11.7807 110.338 11.7807H117.844V24.7452L117.831 24.7387ZM93.9096 16.7799C93.9096 22.0043 90.0188 25.736 84.5648 25.736C79.539 25.736 75.8213 23.0723 75.5397 17.9895H79.2954C79.9431 17.9895 80.5071 18.4142 80.7247 19.0318C81.2823 20.621 82.7186 21.6505 84.5711 21.6505C87.0834 21.6505 88.8527 19.6945 88.8527 16.8893C88.8527 14.0841 87.1538 12.3083 84.5324 12.3083C82.8658 12.3083 81.7696 12.9131 80.8148 14.3672H76.3213L79.2059 0.688677H92.493C92.493 4.47183 91.9226 5.05088 88.9358 5.07662H82.6546L81.4555 10.391C82.6609 9.18144 84.0382 8.64742 86.0195 8.64742C90.7629 8.64742 93.9096 11.8837 93.9096 16.7863V16.7799Z" fill="#652D86"/>
</g>
<defs>
<clipPath id="clip0_54675_7376">
<rect width="118" height="26" fill="white"/>
</clipPath>
</defs>
</svg>
