<svg width="148" height="26" viewBox="0 0 148 26" fill="none" xmlns="http://www.w3.org/2000/svg">
<path d="M64.3096 17.373V11.9574C64.3096 9.91389 63.0086 8.53832 60.9147 8.52027C60.3184 8.48165 59.7226 8.60397 59.1896 8.87448C58.6565 9.145 58.2056 9.55381 57.8839 10.0583C57.5907 9.56878 57.1712 9.16755 56.6695 8.89686C56.1678 8.62618 55.6025 8.49608 55.0332 8.52027C54.5374 8.49628 54.044 8.60222 53.6016 8.82762C53.1592 9.05302 52.7831 9.39009 52.5104 9.80557V8.72245H50.6328V17.373H52.5285V12.582C52.5285 11.08 53.3574 10.2858 54.6403 10.2858C55.9233 10.2858 56.518 11.0981 56.518 12.5639V17.373H58.4028V12.582C58.4028 11.08 59.2677 10.2858 60.5147 10.2858C61.7616 10.2858 62.4103 11.0981 62.4103 12.5639V17.373H64.3096ZM92.3587 8.72967H89.2918V6.10852H87.3962V8.72967H85.6447V10.4482H87.3962V14.3872C87.3962 16.3946 88.171 17.5896 90.391 17.5896C91.2202 17.5923 92.0333 17.3608 92.7371 16.9217L92.1966 15.3114C91.6928 15.612 91.1212 15.7797 90.5352 15.7988C89.5982 15.7988 89.2882 15.2212 89.2882 14.3547V10.4482H92.3551L92.3587 8.72967ZM108.371 8.51305C107.913 8.49968 107.46 8.61036 107.06 8.8334C106.66 9.05644 106.327 9.38358 106.097 9.7803V8.72967H104.237V17.373H106.115V12.5278C106.115 11.0837 106.727 10.3038 107.956 10.3038C108.358 10.298 108.758 10.3716 109.131 10.5204L109.708 8.74773C109.279 8.59397 108.827 8.51461 108.371 8.51305ZM84.1635 9.41565C83.1004 8.78294 81.8782 8.46964 80.6425 8.51305C78.4585 8.51305 77.0386 9.56368 77.0386 11.2786C77.0386 12.6903 78.0837 13.5568 80.0154 13.8276L80.8983 13.9539C81.9255 14.0983 82.4156 14.3691 82.4156 14.8565C82.4156 15.5244 81.7308 15.9071 80.4479 15.9071C79.4128 15.9401 78.3969 15.6221 77.5647 15.0045L76.7106 16.4668C77.804 17.2326 79.1142 17.6263 80.4479 17.5896C82.9382 17.5896 84.3833 16.4126 84.3833 14.7699C84.3833 13.2499 83.2445 12.4556 81.3705 12.1848L80.4875 12.0585C79.6766 11.9501 79.0243 11.7877 79.0243 11.21C79.0243 10.5782 79.637 10.1991 80.6677 10.1991C81.6121 10.2131 82.5373 10.4678 83.3562 10.9392L84.1635 9.41565ZM134.445 8.51305C133.987 8.49968 133.534 8.61036 133.134 8.8334C132.734 9.05644 132.401 9.38358 132.171 9.7803V8.72967H130.311V17.373H132.189V12.5278C132.189 11.0837 132.802 10.3038 134.031 10.3038C134.433 10.298 134.832 10.3716 135.205 10.5204L135.782 8.74773C135.353 8.59397 134.901 8.51461 134.445 8.51305ZM110.267 13.0513C110.267 15.6725 112.09 17.5896 114.869 17.5896C115.995 17.6454 117.102 17.2771 117.972 16.557L117.071 15.037C116.422 15.5322 115.63 15.8044 114.815 15.8133C113.315 15.8133 112.216 14.7085 112.216 13.0477C112.216 11.3869 113.319 10.3002 114.815 10.2821C115.63 10.291 116.422 10.5632 117.071 11.0584L117.972 9.5384C117.102 8.8183 115.995 8.44998 114.869 8.50583C112.09 8.50583 110.267 10.423 110.267 13.0441V13.0513ZM127.846 13.0513V8.71884H125.969V9.76947C125.649 9.35563 125.234 9.02463 124.76 8.80415C124.286 8.58367 123.766 8.48014 123.244 8.50222C120.826 8.50222 118.919 10.4013 118.919 13.0405C118.919 15.6797 120.815 17.5788 123.244 17.5788C123.766 17.6008 124.286 17.4973 124.76 17.2768C125.234 17.0564 125.649 16.7253 125.969 16.3115V17.3585H127.846V13.0513ZM120.862 13.0513C120.862 11.5313 121.853 10.2858 123.478 10.2858C125.032 10.2858 126.077 11.4808 126.077 13.0513C126.077 14.6218 125.032 15.8169 123.478 15.8169C121.853 15.8169 120.862 14.5677 120.862 13.0513ZM98.2079 8.51305C95.6851 8.51305 93.912 10.358 93.912 13.0513C93.912 15.7988 95.7536 17.5896 98.334 17.5896C99.6224 17.6348 100.882 17.203 101.873 16.3765L100.954 14.9829C100.237 15.5574 99.3492 15.8751 98.4313 15.8855C97.2204 15.8855 96.1212 15.3259 95.8509 13.7698H102.259C102.277 13.5351 102.295 13.3004 102.295 13.0477C102.295 10.3544 100.615 8.50944 98.1971 8.50944L98.2079 8.51305ZM98.1718 10.1955C99.3827 10.1955 100.158 10.9537 100.356 12.2931H95.8833C96.0816 11.0439 96.8384 10.1955 98.1754 10.1955H98.1718ZM145.257 13.0513V5.25647H143.379V9.77669C143.059 9.36285 142.645 9.03185 142.171 8.81137C141.697 8.5909 141.177 8.48736 140.655 8.50944C138.236 8.50944 136.33 10.4085 136.33 13.0477C136.33 15.6869 138.226 17.586 140.655 17.586C141.177 17.6081 141.697 17.5045 142.171 17.2841C142.645 17.0636 143.059 16.7326 143.379 16.3187V17.3657H145.257V13.0513ZM147.452 16.5751C147.526 16.5748 147.599 16.5895 147.668 16.6184C147.734 16.6466 147.794 16.687 147.844 16.7375C147.895 16.7871 147.935 16.846 147.963 16.9108C147.992 16.9781 148.007 17.0506 148.007 17.1239C148.007 17.1971 147.992 17.2696 147.963 17.3369C147.935 17.4017 147.895 17.4605 147.844 17.5102C147.793 17.5605 147.733 17.6009 147.668 17.6293C147.599 17.6585 147.526 17.6732 147.452 17.6726C147.342 17.674 147.234 17.6429 147.141 17.5832C147.049 17.5234 146.977 17.4378 146.933 17.3369C146.904 17.2695 146.889 17.1971 146.889 17.1239C146.889 17.0506 146.904 16.9782 146.933 16.9108C146.989 16.7783 147.095 16.6732 147.228 16.6184C147.301 16.588 147.38 16.5732 147.459 16.5751H147.452ZM147.452 17.5499C147.508 17.5508 147.565 17.5397 147.617 17.5174C147.667 17.4958 147.712 17.4652 147.751 17.4271C147.831 17.3466 147.876 17.2375 147.876 17.1239C147.876 17.0102 147.831 16.9011 147.751 16.8206C147.712 16.7823 147.667 16.7516 147.617 16.7303C147.565 16.7082 147.508 16.6971 147.452 16.6978C147.393 16.6971 147.336 16.7081 147.282 16.7303C147.218 16.7578 147.161 16.8006 147.117 16.855C147.073 16.9094 147.043 16.9738 147.03 17.0424C147.016 17.1111 147.02 17.1821 147.04 17.2491C147.06 17.3162 147.096 17.3773 147.145 17.4271C147.185 17.4658 147.231 17.4964 147.282 17.5174C147.338 17.5407 147.398 17.5518 147.459 17.5499H147.452ZM147.484 16.8639C147.538 16.8601 147.591 16.8755 147.635 16.9072C147.653 16.9214 147.667 16.9396 147.677 16.9603C147.686 16.981 147.69 17.0037 147.689 17.0264C147.69 17.0459 147.687 17.0653 147.679 17.0834C147.672 17.1015 147.66 17.1177 147.646 17.1311C147.613 17.1605 147.571 17.1783 147.527 17.1816L147.693 17.373H147.563L147.408 17.1816H147.358V17.373H147.25V16.8675L147.484 16.8639ZM147.358 16.9578V17.095H147.484C147.506 17.1015 147.53 17.1015 147.552 17.095C147.561 17.0894 147.567 17.0818 147.572 17.073C147.576 17.0641 147.578 17.0543 147.578 17.0444C147.578 17.0345 147.576 17.0247 147.572 17.0158C147.567 17.007 147.561 16.9994 147.552 16.9939C147.53 16.9874 147.506 16.9874 147.484 16.9939L147.358 16.9578ZM138.28 13.0513C138.28 11.5313 139.271 10.2858 140.896 10.2858C142.449 10.2858 143.494 11.4808 143.494 13.0513C143.494 14.6218 142.449 15.8169 140.896 15.8169C139.271 15.8169 138.28 14.5677 138.28 13.0513ZM74.887 13.0513V8.71884H73.0094V9.76947C72.6892 9.35914 72.2761 9.03115 71.8041 8.81266C71.3322 8.59416 70.8151 8.49146 70.2957 8.51305C67.8775 8.51305 65.971 10.4121 65.971 13.0513C65.971 15.6905 67.8666 17.5896 70.2957 17.5896C70.8178 17.6117 71.3377 17.5081 71.8117 17.2877C72.2857 17.0672 72.7001 16.7362 73.0202 16.3223V17.3694H74.8979L74.887 13.0513ZM67.9027 13.0513C67.9027 11.5313 68.8938 10.2858 70.5191 10.2858C72.0724 10.2858 73.1175 11.4808 73.1175 13.0513C73.1175 14.6218 72.0724 15.8169 70.5191 15.8169C68.8938 15.8169 67.9027 14.5713 67.9027 13.0513Z" fill="#231F20"/>
<path d="M26.6667 2.77664H15.3145V23.2151H26.6667V2.77664Z" fill="#FF5F00"/>
<path d="M16.0354 13.0023C16.0339 11.0343 16.4792 9.09167 17.3377 7.3215C18.1963 5.55133 19.4455 4 20.9908 2.78489C19.0768 1.27799 16.7782 0.340937 14.3578 0.0808302C11.9374 -0.179277 9.49272 0.248056 7.30324 1.31399C5.11377 2.37992 3.26781 4.04145 1.97634 6.10867C0.684871 8.17589 0 10.5654 0 13.0041C0 15.4428 0.684871 17.8324 1.97634 19.8996C3.26781 21.9668 5.11377 23.6283 7.30324 24.6943C9.49272 25.7602 11.9374 26.1875 14.3578 25.9274C16.7782 25.6673 19.0768 24.7303 20.9908 23.2234C19.445 22.0079 18.1955 20.456 17.337 18.6851C16.4784 16.9143 16.0333 14.971 16.0354 13.0023Z" fill="#EB001B"/>
<path d="M41.9834 13.0007C41.9834 15.4396 41.2983 17.8293 40.0066 19.8966C38.715 21.9639 36.8687 23.6254 34.679 24.6912C32.4892 25.757 30.0443 26.184 27.6237 25.9235C25.2032 25.6631 22.9046 24.7255 20.9907 23.2182C22.5355 22.002 23.7843 20.4502 24.643 18.68C25.5018 16.9097 25.948 14.9672 25.948 12.9989C25.948 11.0307 25.5018 9.08819 24.643 7.31792C23.7843 5.54766 22.5355 3.9959 20.9907 2.77971C22.9048 1.27215 25.2037 0.334598 27.6246 0.0742532C30.0455 -0.186092 32.4907 0.241276 34.6806 1.3075C36.8705 2.37371 38.7167 4.03575 40.0081 6.10357C41.2995 8.1714 41.984 10.5615 41.9834 13.0007Z" fill="#F79E1B"/>
<path d="M40.7366 21.0484V20.6295H40.906V20.5464H40.4844V20.6331H40.6538V21.052L40.7366 21.0484ZM41.5691 21.0484V20.5428H41.4574L41.3061 20.9039L41.1547 20.5428H41.0214V21.0484H41.097V20.6692L41.2376 20.9978H41.3349L41.4754 20.6692V21.052L41.5691 21.0484Z" fill="#F79E1B"/>
</svg>
