<svg width="24" height="24" viewBox="0 0 24 24" fill="none" xmlns="http://www.w3.org/2000/svg">
<rect width="24" height="24" rx="12" fill="#E4002B"/>
<path d="M5.24854 7.51342C5.16544 7.44892 5.04634 7.48302 5.00622 7.58282L3.91739 10.2983C3.71604 10.8005 3.82674 11.3803 4.19713 11.7631L6.13887 13.7705L4.25419 13.7662C4.13979 13.7659 4.06238 13.8878 4.10692 13.9979L5.27558 16.8857C5.4183 17.2384 5.69932 17.5101 6.04695 17.6314L11.5958 19.5678C11.8581 19.6592 12.1418 19.6592 12.404 19.5678L17.9529 17.6314C18.3006 17.5101 18.5816 17.2384 18.7243 16.8857L19.8929 13.9979C19.9375 13.8878 19.8601 13.7659 19.7456 13.7662L17.861 13.7705L19.8028 11.7631C20.1731 11.3803 20.2838 10.8005 20.0825 10.2983L18.9936 7.58282C18.9535 7.48302 18.8344 7.44892 18.7513 7.51342L17.4458 8.52735L17.4337 6.79931C17.43 6.26595 17.1229 5.78627 16.6528 5.57927L13.9217 4.37687C13.8166 4.33061 13.7002 4.41142 13.7002 4.53064V5.66438C13.7002 6.07971 13.8852 6.47132 14.2006 6.72383L17.0169 8.97842V13.7705L11.9999 18.3311L6.98295 13.7705V8.97842L9.79922 6.72383C10.1147 6.47132 10.2997 6.07971 10.2997 5.66438V4.53064C10.2997 4.41142 10.1833 4.33061 10.0781 4.37687L7.34708 5.57927C6.87694 5.78627 6.56988 6.26595 6.56618 6.79931L6.55408 8.52735L5.24854 7.51342Z" fill="white"/>
</svg>
