<svg width="123" height="44" viewBox="0 0 123 44" fill="none" xmlns="http://www.w3.org/2000/svg">
<path fill-rule="evenodd" clip-rule="evenodd" d="M8.01197 0.400116L0.93042 25.4217H15.6221L10.5291 43.4642L115.753 43.4811L122.826 18.2982H82.6864L87.7123 0.417029L8.01197 0.400116Z" fill="black"/>
<path fill-rule="evenodd" clip-rule="evenodd" d="M41.222 23.0157L43.3785 29.3037L48.6379 23.0157H54.6771L50.2365 38.7435H45.5738L48.134 29.7514L43.7975 34.9016H40.8002L39.1668 30.0381L36.7146 38.7435H16.6205L21.0613 23.0157H41.222ZM69.6939 23.0157V38.7436H65.209V36.1147H58.4001L56.9271 38.7436H51.7313L60.9015 23.0157H69.6939ZM86.7017 23.0156L85.4361 27.5092H81.059L77.887 38.7435H73.2243L76.3962 27.5092H71.2925L72.5581 23.0156H86.7017ZM99.9794 23.0156L98.6916 27.5092H91.631L89.7214 34.2499H96.782L95.5166 38.7435H89.6549C85.9912 38.7435 84.3038 36.609 85.3473 32.9241L86.9904 27.1724C87.7897 24.3414 89.5659 23.0156 92.4524 23.0156H99.9794ZM106.685 23.0157L105.099 28.6327H110.428L112.014 23.0157H116.676L112.236 38.7435H107.573L109.159 33.1263H103.83L102.244 38.7435H97.5814L102.022 23.0157H106.685ZM65.209 27.2846H63.3491L60.5411 32.2952H65.209V27.2846ZM35.4267 5.0409C39.0905 5.0409 40.7556 7.2653 39.7342 10.8601L39.2902 12.4106C38.4908 15.2416 36.7145 16.5672 33.8281 16.5672H28.3313L27.1448 20.7688H7.05078L11.4916 5.0409H35.4267ZM54.5442 5.04076V20.7688H50.0587V18.1399H43.2502L41.7771 20.7688H36.5812L45.7516 5.04076H54.5442ZM68.8872 5.0409C72.5509 5.0409 74.216 7.22026 73.1949 10.8601L72.7952 12.2757C72.211 14.3607 71.1053 15.6178 69.4259 16.1439L70.8189 20.7688H66.0231L64.7168 16.4323H61.8298L60.6053 20.7688H55.9426L60.3832 5.0409H68.8872ZM81.6098 5.04074L77.169 20.7688H72.5065L76.9469 5.04074H81.6098ZM50.0587 9.30982H48.1992L45.3911 14.3202H50.0587V9.30982ZM35.4046 9.28734H30.3867L29.4288 12.6802H34.472L35.4046 9.28734ZM68.8653 9.28734H63.8471L62.8892 12.6802H67.9325L68.8653 9.28734Z" fill="#F8FF13"/>
</svg>
