<svg width="24" height="24" viewBox="0 0 24 24" fill="none" xmlns="http://www.w3.org/2000/svg">
<rect width="24" height="24" rx="12" fill="#0F1315"/>
<path fill-rule="evenodd" clip-rule="evenodd" d="M11.9999 18.9034C15.8126 18.9034 18.9033 15.8126 18.9033 12C18.9033 8.18735 15.8126 5.09659 11.9999 5.09659C8.18729 5.09659 5.09652 8.18735 5.09652 12C5.09652 15.8126 8.18729 18.9034 11.9999 18.9034ZM11.9999 20.1818C16.5186 20.1818 20.1818 16.5187 20.1818 12C20.1818 7.4813 16.5186 3.81818 11.9999 3.81818C7.48124 3.81818 3.81812 7.4813 3.81812 12C3.81812 16.5187 7.48124 20.1818 11.9999 20.1818Z" fill="#00CFA6"/>
<path fill-rule="evenodd" clip-rule="evenodd" d="M10.6346 20.0686C9.30898 19.846 8.09152 19.3046 7.06372 18.526V12.1463C7.06372 9.33952 9.27372 7.06415 11.9999 7.06415C14.726 7.06415 16.936 9.33952 16.936 12.1463C16.936 14.953 14.726 17.2284 11.9999 17.2284C11.894 17.2284 11.789 17.2249 11.6848 17.2182V13.5143C11.7859 13.5389 11.8914 13.5519 11.9999 13.5519C12.7539 13.5519 13.3652 12.9226 13.3652 12.1463C13.3652 11.3699 12.7539 10.7405 11.9999 10.7405C11.2458 10.7405 10.6346 11.3699 10.6346 12.1463L10.6346 12.1552V17.0314L10.6346 20.0686Z" fill="#FF2400"/>
</svg>
