<svg width="20" height="24" viewBox="0 0 20 24" fill="none" xmlns="http://www.w3.org/2000/svg">
<path d="M16.25 9.60663V6.00829C16.25 6.00829 16.25 0.0110485 10 0.0110485C8.53946 -0.0774558 7.0982 0.368259 5.96638 1.25846C4.83456 2.14867 4.09622 3.41725 3.9 4.80884H6.4C6.6375 3.52543 7.5 2.40994 10 2.40994C13.75 2.40994 13.75 4.80884 13.75 6.60801V9.60663H2.4125C1.77267 9.60663 1.15904 9.85052 0.706605 10.2847C0.254173 10.7188 0 11.3076 0 11.9216V21.6971C0.00330401 22.3089 0.258935 22.8947 0.711009 23.3262C1.16308 23.7578 1.77483 24 2.4125 24H17.5875C18.2273 24 18.841 23.7561 19.2934 23.322C19.7458 22.8878 20 22.299 20 21.6851V11.9216C20 11.3076 19.7458 10.7188 19.2934 10.2847C18.841 9.85052 18.2273 9.60663 17.5875 9.60663H16.25ZM10 19.2022C9.50555 19.2022 9.0222 19.0615 8.61108 18.7979C8.19995 18.5343 7.87952 18.1597 7.6903 17.7213C7.50108 17.283 7.45157 16.8007 7.54804 16.3353C7.6445 15.87 7.8826 15.4425 8.23223 15.107C8.58186 14.7716 9.02732 14.5431 9.51227 14.4505C9.99723 14.358 10.4999 14.4055 10.9567 14.587C11.4135 14.7686 11.804 15.0761 12.0787 15.4706C12.3534 15.8651 12.5 16.3289 12.5 16.8033C12.5 17.4395 12.2366 18.0497 11.7678 18.4996C11.2989 18.9495 10.663 19.2022 10 19.2022Z" fill="#18B7DF"/>
<path d="M16.25 9.60663V6.00829C16.25 6.00829 16.25 0.0110485 10 0.0110485C8.53946 -0.0774558 7.0982 0.368259 5.96638 1.25846C4.83456 2.14867 4.09622 3.41725 3.9 4.80884H6.4C6.6375 3.52543 7.5 2.40994 10 2.40994C13.75 2.40994 13.75 4.80884 13.75 6.60801V9.60663H2.4125C1.77267 9.60663 1.15904 9.85052 0.706605 10.2847C0.254173 10.7188 0 11.3076 0 11.9216V21.6971C0.00330401 22.3089 0.258935 22.8947 0.711009 23.3262C1.16308 23.7578 1.77483 24 2.4125 24H17.5875C18.2273 24 18.841 23.7561 19.2934 23.322C19.7458 22.8878 20 22.299 20 21.6851V11.9216C20 11.3076 19.7458 10.7188 19.2934 10.2847C18.841 9.85052 18.2273 9.60663 17.5875 9.60663H16.25ZM10 19.2022C9.50555 19.2022 9.0222 19.0615 8.61108 18.7979C8.19995 18.5343 7.87952 18.1597 7.6903 17.7213C7.50108 17.283 7.45157 16.8007 7.54804 16.3353C7.6445 15.87 7.8826 15.4425 8.23223 15.107C8.58186 14.7716 9.02732 14.5431 9.51227 14.4505C9.99723 14.358 10.4999 14.4055 10.9567 14.587C11.4135 14.7686 11.804 15.0761 12.0787 15.4706C12.3534 15.8651 12.5 16.3289 12.5 16.8033C12.5 17.4395 12.2366 18.0497 11.7678 18.4996C11.2989 18.9495 10.663 19.2022 10 19.2022Z" fill="url(#paint0_linear_54652_1131)"/>
<defs>
<linearGradient id="paint0_linear_54652_1131" x1="10" y1="0" x2="10" y2="24" gradientUnits="userSpaceOnUse">
<stop stop-color="#0ADEFF"/>
<stop offset="1" stop-color="#52BAEC"/>
</linearGradient>
</defs>
</svg>
