<svg width="20" height="22" viewBox="0 0 20 22" fill="none" xmlns="http://www.w3.org/2000/svg">
<path d="M9.00034 10C9.00034 10.5523 9.44806 11 10.0003 11C10.5525 10.9998 11.0003 10.5522 11.0003 10V0.354492L19.3392 4.0625C19.5345 4.14754 19.7014 4.28748 19.8187 4.46582C19.9359 4.64405 19.9991 4.85286 20.0003 5.06641C20.0081 7.72615 19.3767 17.0804 10.4974 21.8682C10.1716 22.0427 9.76263 22.0447 9.43687 21.8701C0.494534 17.0768 -0.0363601 7.70205 0.00132008 5.05566C0.00442015 4.84457 0.0686077 4.63879 0.184914 4.46289C0.3012 4.2871 0.465081 4.14831 0.65757 4.06348L9.00034 0.327148V10Z" fill="#18B7DF"/>
<path d="M9.00034 10C9.00034 10.5523 9.44806 11 10.0003 11C10.5525 10.9998 11.0003 10.5522 11.0003 10V0.354492L19.3392 4.0625C19.5345 4.14754 19.7014 4.28748 19.8187 4.46582C19.9359 4.64405 19.9991 4.85286 20.0003 5.06641C20.0081 7.72615 19.3767 17.0804 10.4974 21.8682C10.1716 22.0427 9.76263 22.0447 9.43687 21.8701C0.494534 17.0768 -0.0363601 7.70205 0.00132008 5.05566C0.00442015 4.84457 0.0686077 4.63879 0.184914 4.46289C0.3012 4.2871 0.465081 4.14831 0.65757 4.06348L9.00034 0.327148V10Z" fill="url(#paint0_linear_54652_1122)"/>
<defs>
<linearGradient id="paint0_linear_54652_1122" x1="9.99966" y1="-1.03307e-06" x2="9.99966" y2="22.0001" gradientUnits="userSpaceOnUse">
<stop stop-color="#0ADEFF"/>
<stop offset="1" stop-color="#52BAEC"/>
</linearGradient>
</defs>
</svg>
