<svg width="128" height="30" viewBox="0 0 128 30" fill="none" xmlns="http://www.w3.org/2000/svg">
<g clip-path="url(#clip0_54675_7004)">
<path fill-rule="evenodd" clip-rule="evenodd" d="M15.2034 16.0466C17.8032 16.4485 18.1546 17.989 18.3647 19.4227L18.3998 19.6672L18.4236 19.8335L18.5502 20.6773C18.7978 22.2883 19.3146 25.6323 19.3146 27.3773C19.3146 27.8133 19.2763 28.1481 19.2063 28.332C19.0896 28.6154 18.7497 28.8874 18.2804 29.1142C17.1448 29.3941 15.9579 29.5454 14.7353 29.5454C14.6058 29.5454 14.4784 29.5392 14.3506 29.5353C13.8565 29.3948 13.4851 29.1602 13.2885 28.8395C12.6948 27.8717 12.659 25.7154 12.6471 23.1956L12.6458 22.9033L12.641 22.1481C12.6216 19.4805 12.605 17.1805 13.5728 16.3552C13.9476 16.0377 14.4802 15.9326 15.2034 16.0466ZM9.53527 21.8543C10.0987 21.8226 10.461 24.5976 10.5338 26.7019C10.5848 28.1669 10.4312 28.7695 10.1859 28.9859C9.9082 28.8931 9.63531 28.7926 9.36642 28.6835C9.18704 28.3571 9.04994 27.8436 8.96283 27.1711C8.6969 25.0575 8.92791 21.8916 9.53527 21.8543ZM23.6593 26.0013C23.6242 26.194 23.5746 26.3429 23.5135 26.4685C23.0318 26.8556 22.5255 27.211 21.9958 27.5307C21.827 27.5592 21.6771 27.5393 21.6039 27.4153C20.9017 26.1798 20.6381 22.3038 21.3176 21.9664C22.2036 21.5379 23.7907 25.3312 23.6593 26.0013ZM14.5255 0.454529C22.4359 0.454529 28.8686 6.72782 29.046 14.5339L29.0496 14.8037V14.9284C29.0351 18.4545 27.7393 21.6805 25.6045 24.1774C25.5271 24.1385 25.3858 24.0112 25.1299 23.6278C24.8651 23.2424 22.5815 19.723 22.5815 15.6892C22.5815 14.8975 23.7209 13.6609 24.7292 12.5754C25.483 11.7586 26.197 10.9882 26.4599 10.3826C26.7948 9.60126 26.5605 9.05567 26.1899 8.87073C25.8545 8.70637 25.3509 8.82626 24.9975 9.4548C24.4176 10.4721 24.2318 10.6622 23.3859 11.3428C22.5535 12.0231 21.2302 12.7079 21.2302 11.8214C21.2302 11.3428 21.9673 10.2588 22.3314 9.49898C22.7032 8.73068 22.3024 8.17449 21.5346 8.17449C20.0268 8.17449 19.026 10.0979 19.026 10.7643C19.026 11.4301 19.3485 11.5249 19.3485 12.3003C19.3485 13.0814 17.6942 14.0947 16.1359 14.0947C14.6356 14.0947 13.7655 13.7906 13.405 12.9339L13.359 12.8136L13.2548 12.5049C12.8852 11.423 12.62 10.6383 12.1584 9.81835C11.9133 9.38471 11.5351 9.08409 11.208 8.81958C10.7805 8.48707 10.5587 8.1809 10.5124 7.95257C10.4698 7.72603 10.4468 7.29911 11.1776 6.31498C11.9068 5.33647 12.009 4.59726 11.6441 4.21583C11.5118 4.08014 11.2863 3.9932 10.9967 3.9932C10.4846 3.9932 9.77285 4.26497 9.03939 5.01148C7.89923 6.18144 8.5465 7.29225 8.5465 7.77987C8.5465 8.26718 8.33763 8.54283 7.65341 9.2058C6.96418 9.87171 6.72631 10.4426 6.64748 12.7372C6.61728 13.9194 6.40936 14.6 6.22272 15.2034C6.06144 15.7323 5.91311 16.2296 5.90509 16.9481C5.89232 17.7443 6.02466 18.2573 6.1791 18.8493C6.33073 19.3965 6.49177 20.0235 6.59495 21.0723C6.75906 22.6959 6.70201 24.0673 6.40363 25.4691L6.324 25.8203L6.30539 25.9212C6.24428 26.1675 6.17165 26.4667 6.07347 26.5788C2.39729 23.964 0 19.6936 0 14.8664C0 6.90765 6.50303 0.454529 14.5255 0.454529Z" fill="#F14635"/>
<path d="M84.5241 10.428C85.9612 10.428 87.0786 10.9377 87.8762 11.9569C88.6737 12.9762 89.0724 14.3773 89.0724 16.1601V16.326C89.0724 18.0674 88.6648 19.4581 87.8493 20.4981C87.0335 21.5381 85.9325 22.0581 84.5456 22.0581C83.475 22.0581 82.5947 21.6815 81.9049 20.9283V26.5874H78.2728V10.6354H81.6679L81.7757 11.6719C82.4726 10.8427 83.3888 10.428 84.5241 10.428ZM59.1963 10.428C60.6836 10.428 61.8584 10.777 62.7207 11.4749C63.5829 12.1729 64.0249 13.13 64.0464 14.3462V19.3113C64.0608 20.3409 64.226 21.1287 64.5422 21.6746V21.8508H60.9099C60.7806 21.6228 60.6656 21.2877 60.565 20.8454C59.8968 21.6538 58.9627 22.0581 57.7627 22.0581C56.6633 22.0581 55.7293 21.7385 54.9604 21.0993C54.1915 20.4601 53.8071 19.6568 53.8071 18.6893C53.8071 17.4731 54.2742 16.554 55.2083 15.9321C56.1424 15.3102 57.5005 14.9992 59.2824 14.9992H60.4034V14.4084C60.4034 13.3788 59.9399 12.8639 59.013 12.8639C58.1507 12.8639 57.7196 13.2717 57.7196 14.087H54.0873C54.0873 13.0021 54.5669 12.1211 55.5263 11.4438C56.4855 10.7667 57.7088 10.428 59.1963 10.428ZM71.0195 10.428C72.5571 10.428 73.793 10.7632 74.7271 11.4335C75.6613 12.1038 76.1283 12.9848 76.1283 14.0767H72.4854C72.4854 13.1784 71.9931 12.7292 71.0087 12.7292C70.6278 12.7292 70.3081 12.8311 70.0495 13.0349C69.7908 13.2388 69.6614 13.4928 69.6614 13.7968C69.6614 14.1078 69.8195 14.36 70.1356 14.5535C70.4518 14.747 70.9566 14.9059 71.6499 15.0303C72.3433 15.1548 72.9523 15.3033 73.477 15.476C75.2302 16.0565 76.1067 17.0965 76.1067 18.596C76.1067 19.6188 75.6344 20.4515 74.6894 21.0941C73.7445 21.7368 72.5212 22.0581 71.0195 22.0581C70.0207 22.0581 69.1297 21.8854 68.3465 21.5398C67.5633 21.1943 66.9525 20.7244 66.5141 20.1301C66.0758 19.5358 65.8567 18.9105 65.8567 18.254H69.2519C69.2662 18.7722 69.4458 19.1506 69.7907 19.389C70.1356 19.6274 70.5775 19.7466 71.1164 19.7466C71.6122 19.7466 71.9842 19.6498 72.232 19.4564C72.4799 19.2628 72.6038 19.0107 72.6038 18.6997C72.6038 18.4026 72.4423 18.1641 72.1188 17.9845C71.7954 17.8048 71.181 17.6182 70.2758 17.4248C69.3704 17.2313 68.6231 16.9773 68.0339 16.6628C67.4447 16.3485 66.9956 15.9667 66.6866 15.5175C66.3777 15.0683 66.2232 14.5535 66.2232 13.973C66.2232 12.9434 66.6651 12.0952 67.5488 11.4283C68.4327 10.7615 69.5896 10.428 71.0195 10.428ZM43.7299 5.90956V13.4133L48.8707 5.90956H53.5485L47.8041 13.434L53.107 21.8508H48.6233L45.282 16.2328L43.7299 17.8705V21.8508H39.9468V5.90956H43.7299ZM94.946 10.6354V21.8508H91.303V10.6354H94.946ZM126.977 10.6354V12.5218L121.782 19.1558H127.096V21.8508H117.191V19.9021L122.364 13.3304H116.269L118.697 10.6354H126.977ZM99.8164 18.233C100.81 18.233 101.615 19.0102 101.615 19.969C101.615 20.9278 100.81 21.705 99.8164 21.705C98.8232 21.705 98.018 20.9278 98.018 19.969C98.018 19.0102 98.8232 18.233 99.8164 18.233ZM108.252 5.90912V14.2854L108.618 13.8235L111.364 10.5797H115.729L111.634 15.1477L116 21.6865H111.828L109.278 17.5497L108.252 18.5248V21.6865H104.61V5.90912H108.252ZM60.4034 16.865H59.3471C58.0825 16.865 57.4502 17.4109 57.4502 18.5028C57.4502 18.8207 57.5615 19.078 57.7843 19.275C58.007 19.4719 58.2908 19.5704 58.6358 19.5704C59.0884 19.5704 59.4639 19.4771 59.7621 19.2906C60.0603 19.1039 60.274 18.8932 60.4034 18.6582V16.865ZM83.6295 13.1231C82.7673 13.1231 82.1923 13.4202 81.9049 14.0145V18.4302C82.2211 19.0521 82.8032 19.3631 83.6511 19.3631C84.808 19.3631 85.4043 18.4026 85.4402 16.4815V16.1083C85.4402 14.1182 84.8367 13.1231 83.6295 13.1231ZM93.174 5.90912C94.1671 5.90912 94.9723 6.72334 94.9723 7.72775C94.9723 8.73217 94.1671 9.54639 93.174 9.54639C92.1809 9.54639 91.3756 8.73217 91.3756 7.72775C91.3756 6.72334 92.1809 5.90912 93.174 5.90912Z" fill="black"/>
</g>
<defs>
<clipPath id="clip0_54675_7004">
<rect width="128" height="30" fill="white"/>
</clipPath>
</defs>
</svg>
