<svg width="101" height="26" viewBox="0 0 101 26" fill="none" xmlns="http://www.w3.org/2000/svg">
<mask id="mask0_54675_7438" style="mask-type:luminance" maskUnits="userSpaceOnUse" x="0" y="0" width="101" height="26">
<path d="M100.203 0H0.333496V26H100.203V0Z" fill="white"/>
</mask>
<g mask="url(#mask0_54675_7438)">
<path d="M16.3989 14.2735V18.5506L20.0383 18.3537V13.9567L16.3989 14.2735Z" fill="#121517"/>
<path d="M16.3979 25.855H21.9423V21.4683L16.3979 21.6375V25.855Z" fill="#121517"/>
<path d="M11.8428 25.855H15.6839V7.04297L11.8428 7.58667V25.855Z" fill="#121517"/>
<path d="M3.71826 25.8552H7.36497V12.7509L3.71826 13.1267V25.8552Z" fill="#121517"/>
<path d="M0.543945 12.9004L10.4993 11.7961V7.77625L0.543945 9.18526V12.9004Z" fill="#121517"/>
<path d="M51.2247 25.8551H68.3548V20.0519L51.2192 20.5746L51.2247 25.8551Z" fill="#121517"/>
<path d="M56.7525 10.6472C56.509 7.24757 57.5408 6.44319 58.5867 5.9997L58.5847 0.354858C53.6067 1.42262 51.1597 5.10662 51.4435 11.1225L56.7525 10.6472Z" fill="#121517"/>
<path d="M16.3979 11.1448L21.9423 10.5327V6.15808L16.3979 6.94146V11.1448Z" fill="#121517"/>
<path d="M42.2588 8.27595L49.5977 7.46345V2.23975L42.2588 3.27772V8.27595Z" fill="#121517"/>
<path d="M61.8114 6.87916C62.4013 8.10401 61.7945 9.94161 60.3586 11.6472C58.147 14.2756 52.2637 19.6544 52.2637 19.6544L60.711 19.3748C65.8733 14.2987 67.7256 11.2173 68.0573 7.37411C68.2342 5.33745 67.4983 3.37797 66.0449 1.99536C64.4541 0.481402 62.1194 -0.139484 59.5695 0.227496V5.77416C60.602 5.71729 61.4381 6.10322 61.8114 6.87916Z" fill="#121517"/>
<path d="M36.2852 25.8551H41.319V3.40979L36.2852 4.12344V25.8551Z" fill="#121517"/>
<path d="M42.2598 12.0358V17.1288L47.068 16.8633V11.6221L42.2598 12.0358Z" fill="#121517"/>
<path d="M42.2588 25.8552H49.5977V20.6254L42.2588 20.8488V25.8552Z" fill="#121517"/>
<path d="M28.6021 25.855H34.9515V21.0735L28.6021 21.2644V25.855Z" fill="#121517"/>
<path d="M23.4121 25.8551H27.7825V5.33069L23.4121 5.9536V25.8551Z" fill="#121517"/>
<path d="M74.5059 0.184814V25.876H99.9932V0.184814H74.5059ZM82.4663 18.8885C80.0919 18.8885 78.2079 17.8689 78.2873 14.889H80.8042C80.9152 15.925 81.4055 16.4029 82.245 16.4029C83.005 16.4029 83.4953 15.7977 83.4953 14.9208C83.4953 14.1402 83.0682 13.5504 82.2288 13.5504C81.7855 13.5504 81.4055 13.7414 81.1527 14.0765L78.6041 13.7421L79.2531 7.35174H86.3291V11.0331H84.018L83.9231 9.90164H81.5959L81.3739 11.8936C81.8011 11.6227 82.3553 11.4474 83.1153 11.4474C85.3 11.4474 86.6136 12.8815 86.6136 15.1287C86.6136 16.9934 85.3787 18.8885 82.4663 18.8885ZM96.2138 11.1596H93.6653C93.4911 10.1237 93.0162 9.74117 92.2877 9.74117C91.3535 9.74117 90.7044 10.5537 90.7044 13.0081C90.7044 15.2546 91.1793 16.2269 92.398 16.2269C92.7303 16.2269 93.0472 16.1471 93.3007 15.9723V14.6175H92.0819V12.0677H96.2138V18.6489H93.5704V17.9474C93.1272 18.4735 92.4465 18.8398 91.3857 18.8398C88.7109 18.8398 87.4442 16.5452 87.4442 13.0229C87.4442 9.26247 89.043 7.12695 91.6549 7.12695C92.6994 7.12695 93.3801 7.44585 93.8078 7.93945L93.8394 7.31789H96.2138V11.1583V11.1596Z" fill="#121517"/>
</g>
</svg>
