<svg width="65" height="32" viewBox="0 0 65 32" fill="none" xmlns="http://www.w3.org/2000/svg">
<g clip-path="url(#clip0_54675_7016)">
<mask id="mask0_54675_7016" style="mask-type:alpha" maskUnits="userSpaceOnUse" x="0" y="0" width="65" height="32">
<path d="M0.333496 0H64.3335V32H0.333496V0Z" fill="white"/>
</mask>
<g mask="url(#mask0_54675_7016)">
<mask id="mask1_54675_7016" style="mask-type:alpha" maskUnits="userSpaceOnUse" x="0" y="5" width="63" height="21">
<path d="M31.3242 5.98L27.1428 25.5773H22.0842L26.2668 5.98H31.3228H31.3242ZM52.6042 18.6333L55.2668 11.2747L56.7988 18.6347H52.6028L52.6042 18.6333ZM58.2468 25.5773H62.9255L58.8402 5.98H54.5228C53.5522 5.98 52.7335 6.54534 52.3708 7.41734L44.7815 25.5773H50.0908L51.1468 22.6507H57.6348L58.2455 25.5773H58.2468ZM45.0468 19.1787C45.0682 14.0067 37.9108 13.7213 37.9602 11.4107C37.9762 10.708 38.6442 9.96 40.1068 9.76934C40.8295 9.676 42.8268 9.60134 45.0922 10.6453L45.9802 6.49067C44.7628 6.04667 43.1975 5.62134 41.2482 5.62134C36.2495 5.62134 32.7308 8.28534 32.7015 12.1C32.6695 14.9213 35.2135 16.4947 37.1308 17.4333C39.1002 18.3933 39.7615 19.0107 39.7535 19.8693C39.7402 21.184 38.1828 21.764 36.7268 21.7867C34.1842 21.8267 32.7082 21.0987 31.5322 20.5493L30.6162 24.8427C31.7975 25.3867 33.9788 25.8613 36.2415 25.884C41.5548 25.884 45.0282 23.2547 45.0455 19.1787H45.0468ZM24.0962 5.97867L15.9015 25.5787H10.5548L6.5255 9.936C6.2815 8.97334 6.0695 8.61867 5.3255 8.21467C4.10683 7.55334 2.09883 6.93334 0.333496 6.54667L0.453496 5.98H9.05883C10.1562 5.98 11.1428 6.71067 11.3922 7.97734L13.5202 19.32L18.7855 5.98H24.0975L24.0962 5.97867Z" fill="white"/>
</mask>
<g mask="url(#mask1_54675_7016)">
<path fill-rule="evenodd" clip-rule="evenodd" d="M31.3242 5.98L27.1428 25.5773H22.0842L26.2668 5.98H31.3228H31.3242ZM52.6042 18.6333L55.2668 11.2747L56.7988 18.6347H52.6028L52.6042 18.6333ZM58.2468 25.5773H62.9255L58.8402 5.98H54.5228C53.5522 5.98 52.7335 6.54534 52.3708 7.41734L44.7815 25.5773H50.0908L51.1468 22.6507H57.6348L58.2455 25.5773H58.2468ZM45.0468 19.1787C45.0682 14.0067 37.9108 13.7213 37.9602 11.4107C37.9762 10.708 38.6442 9.96 40.1068 9.76934C40.8295 9.676 42.8268 9.60134 45.0922 10.6453L45.9802 6.49067C44.7628 6.04667 43.1975 5.62134 41.2482 5.62134C36.2495 5.62134 32.7308 8.28534 32.7015 12.1C32.6695 14.9213 35.2135 16.4947 37.1308 17.4333C39.1002 18.3933 39.7615 19.0107 39.7535 19.8693C39.7402 21.184 38.1828 21.764 36.7268 21.7867C34.1842 21.8267 32.7082 21.0987 31.5322 20.5493L30.6162 24.8427C31.7975 25.3867 33.9788 25.8613 36.2415 25.884C41.5548 25.884 45.0282 23.2547 45.0455 19.1787H45.0468ZM24.0962 5.97867L15.9015 25.5787H10.5548L6.5255 9.936C6.2815 8.97334 6.0695 8.61867 5.3255 8.21467C4.10683 7.55334 2.09883 6.93334 0.333496 6.54667L0.453496 5.98H9.05883C10.1562 5.98 11.1428 6.71067 11.3922 7.97734L13.5202 19.32L18.7855 5.98H24.0975L24.0962 5.97867Z" fill="url(#paint0_linear_54675_7016)"/>
</g>
</g>
</g>
<defs>
<linearGradient id="paint0_linear_54675_7016" x1="10.4409" y1="15.4214" x2="53.216" y2="21.7698" gradientUnits="userSpaceOnUse">
<stop stop-color="#222357"/>
<stop offset="0.47848" stop-color="#233376"/>
<stop offset="1" stop-color="#254AA5"/>
</linearGradient>
<clipPath id="clip0_54675_7016">
<rect width="64" height="32" fill="white" transform="translate(0.333496)"/>
</clipPath>
</defs>
</svg>
